<svg width="76" height="82" viewBox="0 0 76 82" fill="none" xmlns="http://www.w3.org/2000/svg">
<g clip-path="url(#clip0_1006_1527)">
<path d="M38.0309 72.274C37.0262 70.9837 35.9325 69.983 34.6167 69.1206L28.1057 64.8535C26.5851 63.8082 25.1375 62.774 23.7629 61.5426C20.363 58.4957 17.4694 54.095 16.7948 49.5303C16.5805 48.0777 16.6123 46.6935 16.6504 45.217L16.9313 34.4967C16.9774 32.7386 16.8266 31.0744 16.4425 29.3752C16.0107 27.4675 15.1615 25.754 13.9187 24.2298C16.0742 22.5449 17.6789 20.4447 18.2964 17.7336C20.736 18.0852 23.1407 17.8863 25.5073 17.2579C27.1629 16.8013 28.6898 16.2158 30.2644 15.5221C32.9691 14.2588 35.5595 12.8301 38.0499 11.1929C40.6039 12.8507 43.2435 14.2747 46.0101 15.5221C47.7656 16.2889 49.4862 16.9238 51.3512 17.3533C53.4734 17.8704 55.6051 17.9786 57.7781 17.7034C58.2098 19.4885 59.0114 21.0811 60.2193 22.3985L62.1034 24.2011C60.9399 25.6331 60.1241 27.2527 59.6511 29.0474C59.2082 30.7291 58.9828 32.3965 59.0146 34.1482L59.1289 40.5712L59.2638 46.7253C59.3924 52.6408 56.0575 58.2698 51.7322 62.1233C50.3164 63.385 48.8259 64.4414 47.2609 65.509L41.3404 69.4118C40.0959 70.1946 39.0483 71.1142 38.0341 72.2709L38.0309 72.274ZM38.0753 70.7212C39.0975 69.7029 40.115 68.952 41.2515 68.2328L48.0116 63.7366C49.6608 62.6404 51.1322 61.3914 52.5004 59.9627C54.248 58.1378 55.675 56.0996 56.7178 53.8006C57.8924 51.2088 58.3336 48.477 58.2622 45.637L58.1781 42.3452L58.0194 33.8778C57.9876 32.134 58.2352 30.4905 58.6686 28.8151C59.0876 27.1923 59.7749 25.6951 60.6971 24.3268L59.2368 22.8392C58.221 21.6634 57.5035 20.3222 57.0495 18.8219C54.9417 18.9937 52.9385 18.8155 50.9306 18.3239C49.3164 17.915 47.8148 17.4043 46.2768 16.7503C43.4133 15.5332 40.6991 14.0758 38.0547 12.418C34.2532 14.7822 30.2104 17.032 25.874 18.23C23.636 18.86 21.3693 19.0717 19.0297 18.8712C18.3377 21.1336 17.0393 22.8758 15.3203 24.4016C16.3853 25.921 17.0694 27.5407 17.4583 29.3036C17.8012 30.8628 17.9821 32.3981 17.9393 34.0178L17.6154 46.2416C17.5583 48.3879 17.8456 50.4435 18.5964 52.4371C19.4091 54.5914 20.5709 56.5133 22.0392 58.2809C23.3836 59.8974 24.8677 61.3373 26.5899 62.5306L29.5406 64.5735L35.1087 68.2106C36.2087 68.9281 37.1563 69.7332 38.0706 70.718L38.0753 70.7212Z" fill="url(#paint0_linear_1006_1527)"/>
<path d="M21.8932 69.722C20.9377 69.8764 19.7711 70.5239 19.5219 71.5517C19.3949 72.0752 19.6393 72.5636 20.0901 72.8134C19.4949 73.1873 18.8108 72.8993 18.5743 72.2788C18.3917 71.7951 18.4727 71.2606 18.6917 70.7801C19.025 70.0434 19.6409 69.5216 20.3853 69.1954C22.5107 68.2678 25.0694 68.7658 27.1757 69.6838C28.2947 70.1707 29.2296 70.8182 30.2788 71.5453C28.7502 69.59 26.7201 68.0817 24.4106 67.1255C21.5805 65.9545 18.1409 65.9879 15.5711 67.6489C14.4981 68.341 13.614 69.294 13.2331 70.5271C13.6918 69.7698 14.1521 69.1174 14.8775 68.5908C16.4108 67.4787 18.2171 66.8995 20.1345 66.8852C21.8043 66.8725 23.4678 67.1907 24.89 68.1167C23.0218 67.6362 21.3044 67.8844 19.6711 68.7483L17.8886 69.6902C17.7425 69.2129 17.8695 68.742 18.1838 68.3442C16.7568 68.3235 15.4061 68.8056 14.4156 69.765C13.4252 70.7244 12.968 72.107 13.2633 73.5596C11.7093 72.0624 12.1141 69.7459 13.3918 68.1358C15.0394 66.0595 17.9235 65.1669 20.5441 65.2433C24.0329 65.3467 27.2899 67.1382 29.6137 69.6982C30.9883 71.2128 32.0851 72.9136 32.7009 74.9231L31.7803 73.8826C31.2708 73.305 30.7454 72.7704 30.0708 72.3854C28.5598 71.5231 26.6804 71.757 25.4376 72.9582C24.8678 73.5087 24.6567 74.2596 24.8519 75.0265C24.3725 74.842 24.071 74.4299 24.0392 73.9271C24.0106 73.4769 24.19 73.0918 24.4344 72.6559C23.0884 73.4753 22.2615 75.3638 23.2488 76.6144C23.7202 77.211 24.5678 77.3781 24.9884 76.8355C24.7757 76.7464 24.6138 76.6732 24.5202 76.5412C24.4265 76.4091 24.4535 76.1386 24.5741 75.9939C24.7027 75.8395 24.9551 75.7409 25.1424 75.7568C25.2916 75.7679 25.536 75.9159 25.6424 76.0734C25.9995 76.6016 25.8281 77.2635 25.3313 77.6549C24.7075 78.1481 23.8535 78.1386 23.1519 77.7408C21.5663 76.8387 21.5583 74.2819 23.1377 72.7052C24.5424 71.3035 26.4868 70.8278 28.482 71.1301C26.5265 70.2009 23.4122 70.0514 21.6043 71.2383C21.2631 71.4992 21.0488 71.8508 21.071 72.3027C20.6583 72.0258 20.5314 71.531 20.6599 71.0474C20.7933 70.4205 21.2678 70.053 21.8932 69.7236V69.722Z" fill="url(#paint1_linear_1006_1527)"/>
<path d="M54.321 69.7729C54.7972 70.0466 55.2432 70.4221 55.394 70.9996C55.5496 71.4865 55.4115 72.0131 55.002 72.3011C55.0051 71.8476 54.802 71.4531 54.4369 71.2033C52.775 70.0657 49.5957 70.2152 47.7291 71.1365C49.537 70.8564 51.2846 71.2112 52.6147 72.4125C53.2258 72.963 53.7004 73.5994 53.929 74.3837C54.1829 75.227 54.1512 76.0814 53.7385 76.8578C53.2195 77.8395 52.0322 78.3104 51.0211 77.8506C50.3481 77.5435 50.0386 76.7401 50.3973 76.1243C50.6132 75.7552 51.0703 75.6359 51.3893 75.9016C51.5465 76.032 51.6211 76.2739 51.5608 76.4823C51.5195 76.6239 51.3052 76.7544 51.0862 76.826C51.3878 77.2683 52.0195 77.2587 52.4623 76.9342C53.083 76.4775 53.3195 75.69 53.1845 74.9167C53.0258 74.0019 52.4877 73.2239 51.702 72.6988C51.9417 73.1809 52.1354 73.6407 51.9941 74.1499C51.883 74.546 51.6449 74.8929 51.2338 74.9915C51.4211 74.2549 51.2227 73.585 50.7544 73.0473C49.3291 71.4101 46.9339 71.5533 45.2244 73.0473L43.4546 74.9899C43.7213 74.0035 44.1212 73.1634 44.6371 72.3122C46.891 68.594 50.8973 65.5424 55.321 65.2624C58.7527 65.0444 62.6653 66.6561 63.5129 70.1643C63.8065 71.3783 63.5542 72.6527 62.6701 73.5516C62.9494 72.0561 62.5161 70.5573 61.3987 69.5582C60.4257 68.6895 59.1479 68.3394 57.8432 68.3426C58.1956 68.7197 58.3067 69.2272 58.1717 69.6727L55.2448 68.2121C54.029 67.6044 52.7004 67.8717 51.3147 68.0467C54.675 66.1502 59.4701 66.5209 62.024 69.4802L62.7463 70.5971C62.1955 68.7213 60.4955 67.3705 58.5876 66.7595C56.4575 66.0786 54.1941 66.1963 52.1084 67.0173C50.2925 67.7332 48.7084 68.7897 47.2751 70.1007C46.8323 70.5064 46.4466 70.9185 46.0926 71.4419C47.264 70.6305 48.3545 69.913 49.656 69.415C51.7258 68.6242 54.502 68.2837 56.3496 69.5582C57.6575 70.4619 57.9606 72.2311 57.0781 72.7927C56.7305 73.0139 56.3623 73.0536 55.9702 72.8118C56.4908 72.5079 56.7083 71.8874 56.4353 71.3067C56.0559 70.5016 55.2782 69.8811 54.321 69.7698V69.7729Z" fill="url(#paint2_linear_1006_1527)"/>
<path d="M34.1627 6.83187C33.8358 7.34419 33.3612 7.56693 32.8088 7.75149L31.2644 8.2638C30.8279 6.6855 30.1882 5.25517 29.1962 4.01894C28.8851 3.63073 28.5152 3.40798 28.0137 3.22342C29.339 2.68247 30.5279 3.62277 30.8771 4.99583C31.2088 4.824 31.5279 4.7699 31.8057 4.90673C32.0834 5.04356 32.2723 5.36972 32.1977 5.73247C32.012 5.63065 31.8152 5.54155 31.6533 5.59246C31.5152 5.63542 31.3961 5.8868 31.3946 6.05227C31.3898 6.48344 31.6707 6.76505 32.0088 6.8987C32.3691 7.0403 32.7548 6.98143 33.0675 6.70141C33.4009 6.4023 33.677 5.87567 33.5009 5.42541C33.3326 5.27267 32.9612 5.12152 32.9755 4.80968C32.9929 4.44851 33.1612 4.11122 33.3882 3.75005L34.1675 4.59171C34.3088 4.74445 34.104 5.14698 33.9945 5.31244C34.2231 5.92976 34.8088 6.39912 35.4722 6.45321C36.2167 6.51367 36.8802 6.02841 36.9659 5.30131C37.0135 4.89241 36.8786 4.5042 36.531 4.30691C36.2944 4.17327 35.9802 4.23691 35.85 4.41351C35.6786 4.64898 35.7516 4.9115 35.9326 5.20107C35.4516 5.1597 35.1167 4.77627 35.0246 4.39601C34.904 3.89643 35.0802 3.39366 35.5246 3.1566C36.1008 2.84794 36.7992 3.06909 37.1897 3.58618C37.5801 4.10326 37.8198 4.65058 38.0722 5.28221C38.5341 4.29737 38.9515 3.09137 39.9975 3.00863C40.6166 2.95931 41.1134 3.36502 41.207 3.91711C41.3086 4.50897 40.8674 5.12311 40.2483 5.18675C40.4245 4.91469 40.4944 4.63626 40.3055 4.39919C40.1674 4.22418 39.861 4.17327 39.6134 4.32123C39.2944 4.51216 39.123 4.89878 39.1865 5.2854C39.3261 6.13978 40.1785 6.63936 41.0102 6.39116C41.5467 6.23047 42.0118 5.79293 42.1483 5.2663C42.042 5.12947 41.8308 4.74763 41.9451 4.6283L42.7943 3.73732C42.9975 4.09212 43.1753 4.42783 43.2007 4.81922C43.2181 5.09129 42.8467 5.28062 42.6959 5.42222C42.4642 6.03795 42.9038 6.78096 43.5213 6.92415C44.1387 7.06735 44.7435 6.69027 44.7657 6.05227C44.7721 5.89476 44.6578 5.66088 44.5451 5.60678C44.3911 5.532 44.1641 5.6036 43.9737 5.73566C43.8784 5.43336 44.0435 5.08652 44.299 4.93537C44.599 4.75876 44.9593 4.824 45.2863 4.97674C45.645 3.62754 46.8149 2.69838 48.1386 3.19638C47.691 3.37457 47.326 3.58618 47.0244 3.96007C46.0117 5.21221 45.3482 6.67118 44.8736 8.26062L43.234 7.7133C42.7308 7.54625 42.3134 7.32668 42.0102 6.83824C41.4769 7.22804 40.8467 7.33623 40.2007 7.25827C39.2023 7.13894 38.4277 6.50571 38.0738 5.51291C37.7563 6.55504 36.9167 7.17235 35.8897 7.26463C35.2786 7.32032 34.6881 7.22963 34.1659 6.83187H34.1627Z" fill="url(#paint3_linear_1006_1527)"/>
<path d="M59.8162 58.5069C60.8749 56.7424 61.5923 54.8857 61.9336 52.8842C62.1637 51.5334 62.2415 49.6974 61.286 48.6871C61.7542 48.5216 62.2177 48.7014 62.551 49.0673C62.8431 49.4332 62.9574 49.8644 63.078 50.3847C63.4828 48.0984 63.532 45.3825 62.1796 43.3762C62.924 43.5608 63.4748 43.9712 63.9764 44.4915C66.2605 46.8574 66.116 50.1492 64.9637 53.1133C64.1399 55.2325 62.9161 57.0781 61.4003 58.763C60.2876 60.0009 59.0273 61.0159 57.5813 61.8385C56.8924 62.214 56.2432 62.5926 55.4163 62.7136C57.2432 61.6587 58.7225 60.3318 59.8162 58.5069ZM60.0336 59.2435C62.1098 57.3804 63.5415 55.0098 64.4351 52.4562C64.8462 51.0465 65.078 49.6894 64.9589 48.2352C64.8542 46.9115 64.3938 45.6641 63.4304 44.7381C64.1288 46.2257 64.3526 47.7674 64.1748 49.4014C63.9256 51.6877 63.197 53.8372 62.132 55.8689C61.5225 57.0749 60.7495 58.1123 60.0352 59.2435H60.0336Z" fill="url(#paint4_linear_1006_1527)"/>
<path d="M13.9283 52.4769C14.3601 55.6733 15.8902 58.9842 18.3758 61.0684L20.6345 62.712C20.0933 62.556 19.6377 62.3778 19.1504 62.1265C15.8934 60.44 13.2934 57.7814 11.6284 54.5023C10.0855 51.465 9.35698 47.6672 11.6125 44.8909C12.1903 44.1797 12.8902 43.6117 13.8363 43.3555C12.4045 45.4 12.4617 48.0602 12.8648 50.3815C13.0045 49.858 13.1188 49.4078 13.4363 49.0434C13.7537 48.6791 14.2664 48.5279 14.7156 48.6807C13.814 49.5462 13.7616 51.2534 13.9267 52.4753L13.9283 52.4769ZM15.9584 59.1862C14.7362 57.4934 13.6823 55.888 12.9442 54.0027C12.2141 52.1937 11.7665 50.3274 11.7204 48.3752C11.695 47.0992 11.9807 45.9696 12.5077 44.7811C10.3903 46.8637 10.7696 50.2256 11.6855 52.8826C12.5871 55.2866 14.0236 57.4998 15.96 59.1862H15.9584Z" fill="url(#paint5_linear_1006_1527)"/>
<path d="M53.6163 62.7851C55.5559 61.3532 57.0511 59.4647 57.9448 57.1672C58.1448 57.6191 58.1606 58.1298 58.0717 58.6326C57.7051 60.7279 55.8258 62.1281 54.0718 63.1829L55.5797 62.8281C58.4828 62.023 61.0749 60.3763 63.0113 58.0598L65.8097 54.7123C67.1922 53.0576 68.9064 51.6655 71.1254 51.7498C72.0349 51.7832 72.9016 52.1157 73.5127 52.8285C72.4603 52.6567 71.5302 52.7919 70.6445 53.2708C69.9509 53.6463 69.3382 54.1093 68.762 54.663L65.5954 57.7066C62.7589 60.432 59.9447 62.0421 56.1638 63.1511L51.1243 64.373L53.6179 62.7867L53.6163 62.7851ZM65.8732 56.2412L68.2144 53.9756C69.1556 53.1722 70.2382 52.6567 71.4334 52.426C69.5398 52.1841 67.5192 53.6972 66.3128 55.0798L63.3399 58.4894C64.3272 57.8641 65.043 57.0527 65.8732 56.2412Z" fill="url(#paint6_linear_1006_1527)"/>
<path d="M18.0426 57.1418C18.7283 59.2133 20.1012 60.895 21.7568 62.2617C22.7504 63.0811 23.8313 63.6729 24.9535 64.3666C23.125 64.0134 21.4568 63.5711 19.7346 63.0588C17.9632 62.4844 16.3013 61.8114 14.7061 60.8521C13.0252 59.8418 11.5221 58.6803 10.103 57.3343L7.7888 55.1371C6.26184 53.6877 4.67458 52.4164 2.41748 52.8269C2.99683 52.13 3.85078 51.8102 4.74442 51.7466C6.99992 51.5859 8.82211 53.0512 10.23 54.7409L11.7824 56.6024C12.6204 57.6079 13.4538 58.5451 14.4426 59.409C16.614 61.3071 19.1679 62.5974 21.9869 63.175C21.1219 62.6229 20.3203 62.1583 19.6076 61.4805C18.4346 60.3668 17.4251 58.7742 18.0441 57.1434L18.0426 57.1418ZM12.5204 58.2778C11.4586 56.9811 10.403 55.7592 9.23321 54.5834C8.06339 53.4076 6.292 52.1587 4.56664 52.4339C5.77614 52.6471 6.89834 53.1149 7.79515 53.9693L9.71733 55.8021C10.6125 56.682 11.449 57.565 12.5204 58.2762V58.2778Z" fill="url(#paint7_linear_1006_1527)"/>
<path d="M13.706 64.0453C13.7599 63.6395 13.4964 63.2322 13.1076 63.1861C12.5996 63.1256 12.2409 63.5934 12.279 64.1184C11.7981 63.8289 11.7758 63.194 12.1552 62.774C12.7044 62.1647 13.6869 62.284 14.1853 62.949C14.6837 63.6141 14.5837 64.4191 14.1171 65.1431L15.4647 64.7326C16.617 64.4557 17.7837 64.2091 19.0154 64.4732C17.5821 64.6085 16.2504 64.9315 14.9313 65.5026C14.1631 65.8352 13.3901 66.0515 12.5727 66.1534C10.7457 66.3841 9.11876 65.396 8.56956 63.6348C7.941 61.6189 8.68702 59.1306 6.46167 58.8999C7.12197 58.3844 7.98227 58.4226 8.714 58.8044C9.62351 59.2785 10.2187 60.1202 10.6251 61.0478C10.6902 60.5959 10.7981 60.2316 11.0759 59.8815C12.1346 61.4566 11.0997 62.8408 11.5917 64.3921C11.0886 64.1375 10.7806 63.665 10.5806 63.1352L9.81874 61.1066C9.5251 60.3254 9.03304 59.627 8.25528 59.2849C8.59178 59.7161 8.91717 60.1043 9.08384 60.607L9.6616 62.3572C9.88223 63.0254 10.1584 63.6236 10.541 64.2473C9.90446 64.0023 9.64573 63.4279 9.2886 62.8552C9.46637 64.3841 10.9314 65.5122 12.4742 65.2481C13.1155 65.1383 13.6155 64.7198 13.7044 64.0468L13.706 64.0453Z" fill="url(#paint8_linear_1006_1527)"/>
<path d="M62.2971 64.1805C62.4225 64.7198 62.8399 65.0667 63.3558 65.2035C64.9494 65.6251 66.5668 64.4207 66.7779 62.7151C66.4827 63.3118 66.178 63.9132 65.5097 64.2378C65.8446 63.6363 66.1256 63.0206 66.343 62.3476L66.8271 60.852C67.0208 60.2538 67.3827 59.7701 67.8128 59.2944C66.5906 59.7431 66.0303 61.358 65.624 62.5863C65.3907 63.2879 65.0859 63.9545 64.4605 64.3905C64.5843 63.7095 64.5812 63.097 64.4828 62.4447C64.3478 61.5521 64.4224 60.6548 64.9351 59.872C65.2097 60.2411 65.3145 60.6213 65.405 61.0477C65.8256 60.0788 66.4256 59.2865 67.3224 58.8314C68.0208 58.4766 68.8509 58.3891 69.489 58.8935C67.2367 59.2801 68.07 61.7382 67.416 63.692C66.7018 65.824 64.5589 66.5622 62.432 65.929L60.6701 65.2974C59.4638 64.8646 58.2749 64.6148 56.9956 64.4573C58.6908 64.1932 60.2828 64.6291 61.9003 65.1462C61.4241 64.4223 61.3511 63.5727 61.859 62.9267C62.3669 62.2808 63.3415 62.2076 63.8859 62.8106C64.2272 63.2465 64.1986 63.8289 63.7113 64.1057C63.7431 63.657 63.4844 63.2115 63.0336 63.1909C62.5288 63.167 62.1796 63.6698 62.2987 64.1821L62.2971 64.1805Z" fill="url(#paint9_linear_1006_1527)"/>
<path d="M42.5135 9.58117C39.5691 9.03068 36.5676 9.01795 33.6327 9.58435C32.9629 9.75141 32.3756 9.92165 31.7772 10.2844C31.8121 9.70209 31.6931 9.16591 31.2852 8.7252C32.2947 8.22084 33.2931 7.98696 34.3756 7.8024C36.8184 7.43169 39.2644 7.43487 41.7103 7.79286C42.8325 7.96787 43.8722 8.22402 44.9055 8.72361C44.4674 9.11818 44.3039 9.64322 44.3611 10.2685C43.7754 9.96302 43.1976 9.70686 42.5135 9.57958V9.58117ZM37.9279 7.79126C37.5707 7.87241 37.4263 8.21925 37.5295 8.52791C37.6168 8.78566 37.9263 8.96703 38.2168 8.89544C38.5072 8.82384 38.6929 8.5295 38.6279 8.2113C38.5723 7.944 38.2802 7.71171 37.9279 7.79126ZM34.32 8.21289C34.0438 8.2813 33.9089 8.54223 33.9851 8.79998C34.0359 8.97181 34.2803 9.14046 34.5041 9.08795C34.7279 9.03545 34.8708 8.81111 34.8375 8.56928C34.8089 8.35926 34.5883 8.14447 34.3184 8.2113L34.32 8.21289ZM41.7119 8.20493C41.4246 8.24312 41.2532 8.47859 41.3024 8.73634C41.3437 8.9559 41.577 9.12614 41.7818 9.09432C42.0341 9.05613 42.1992 8.83339 42.1865 8.61701C42.1706 8.36244 41.977 8.16834 41.7135 8.20493H41.7119Z" fill="url(#paint10_linear_1006_1527)"/>
<path d="M39.0483 74.8817C39.3451 74.9454 39.5848 75.1856 39.7435 75.4704L40.48 76.7846C41.234 78.129 43.0927 78.7845 44.0942 78.0033C44.4466 77.7281 44.645 77.3112 44.4593 76.8419C44.2053 77.4481 43.6419 77.7631 42.9625 77.6915C42.1784 77.6088 41.4371 77.1378 41.0229 76.4441L40.1578 74.9915C39.8388 74.4569 39.3181 74.204 38.6626 74.2915C38.8547 73.9303 39.161 73.6853 39.4848 73.5962C39.8594 73.4928 40.2467 73.6057 40.5689 73.8348C41.38 74.406 41.2816 75.5659 42.1847 76.2993C42.5339 76.5825 42.9466 76.7432 43.3847 76.6923C43.8228 76.6414 44.118 76.3184 44.0847 75.8379C44.691 75.9843 45.1482 76.4441 45.2418 77.0789C45.3736 77.9747 44.8752 78.775 44.0149 79.0884C42.8165 79.5244 41.4911 79.1568 40.607 78.2277C40.1451 77.7424 39.8642 77.1633 39.6388 76.5364L39.0467 74.8833L39.0483 74.8817Z" fill="url(#paint11_linear_1006_1527)"/>
<path d="M35.7024 76.6653L36.2834 75.5627C36.4469 75.2524 36.7119 74.9915 37.0389 74.869L36.158 77.2062C35.4548 78.8386 33.6723 79.6723 32.0279 79.0439C31.039 78.6652 30.5708 77.5865 31.0073 76.6255C31.1946 76.215 31.5708 75.9652 32.0343 75.8157C31.9962 76.2771 32.2898 76.6239 32.7581 76.686C33.2993 76.7576 33.7771 76.4855 34.1422 76.0734C34.839 75.2859 34.8009 74.2946 35.6358 73.7648C36.2881 73.3496 37.0818 73.5644 37.4199 74.2946C36.7754 74.204 36.2754 74.4681 35.9707 74.9788L35.2834 76.1323C34.6628 77.1919 33.539 78.0336 32.3914 77.5817C32.0454 77.4449 31.8232 77.1919 31.6565 76.8292C31.4787 77.3065 31.6533 77.7758 32.0755 78.0447C33.2152 78.775 34.966 78.067 35.704 76.6653H35.7024Z" fill="url(#paint12_linear_1006_1527)"/>
<path d="M39.4501 77.6517C39.758 78.5491 39.7072 79.4194 39.1961 80.2085L38.0326 82.0016L36.9057 80.3024C36.4819 79.6644 36.3089 78.9468 36.4343 78.1911L36.8041 76.9835C37.0454 76.1975 37.2771 75.4434 37.7612 74.702L37.585 77.9731C37.5469 78.6811 37.8041 79.3493 38.0374 79.9842C38.2691 79.1759 38.5231 78.4297 38.4882 77.6326L38.3549 74.7067C38.8596 75.6566 39.0977 76.6303 39.4485 77.6533L39.4501 77.6517Z" fill="url(#paint13_linear_1006_1527)"/>
<path d="M41.5818 10.461C39.0977 10.181 36.6295 10.1889 34.1502 10.5135C33.7359 10.5676 33.4169 10.6297 32.9851 10.7967L34.7343 11.3297C33.9946 11.4395 32.1629 11.2279 31.9185 10.7856C31.7677 10.5135 33.047 10.0712 33.7756 9.93597C36.6454 9.40138 39.5612 9.39661 42.4262 9.94392C43.0579 10.0648 44.1849 10.4149 44.215 10.7315C44.2516 11.1181 42.2818 11.4729 41.4215 11.3281L43.1627 10.7904C42.5881 10.5803 42.1341 10.5199 41.5818 10.4578V10.461Z" fill="url(#paint14_linear_1006_1527)"/>
<path d="M6.75383 48.3863L7.54746 47.9552C7.56968 48.2018 7.54111 48.3307 7.43635 48.4977C6.54113 49.9249 4.54276 50.1062 3.11105 49.1564L1.84758 48.3816C1.26505 48.0236 0.588877 48.1366 0 48.5264C0.534909 46.8478 2.42376 46.1032 3.97928 46.7874C4.43483 46.9878 4.81418 47.244 5.25862 47.5526C4.86974 47.742 4.53483 47.6242 4.19198 47.4731C3.43644 47.1406 2.60788 47.1151 1.83012 47.5145C2.37932 47.6847 2.87613 47.9472 3.36501 48.2829C4.40308 48.9973 5.65861 49.0641 6.75383 48.3879V48.3863Z" fill="url(#paint15_linear_1006_1527)"/>
<path d="M68.4509 48.1588C68.4223 48.0872 68.5969 47.9552 68.6556 47.9902L69.4223 48.4484C70.4667 49.0737 71.7 48.9559 72.6857 48.2638C73.1429 47.944 73.5936 47.7038 74.1746 47.5129C73.4476 47.1294 72.5905 47.1406 71.8191 47.4747C71.4873 47.6179 71.1683 47.7165 70.7572 47.5813C71.2381 47.2138 71.7111 46.9035 72.2794 46.711C73.792 46.1971 75.4841 46.9528 75.9983 48.5248C74.4254 47.5065 73.6095 49.0164 72.0635 49.5573C70.6667 50.0458 68.9906 49.5176 68.4509 48.1588Z" fill="url(#paint16_linear_1006_1527)"/>
<path d="M8.33151 43.3396L7.75374 42.1193C7.422 42.8527 7.40771 43.6101 7.56168 44.3515C7.64581 44.762 7.61247 45.1597 7.37597 45.5448C6.18234 43.4876 6.57757 41.2729 8.5696 39.9157C8.31246 40.9817 8.49341 41.9284 9.04419 42.8066C9.63783 43.7517 9.77909 44.8336 9.30291 45.8598C9.00768 46.4787 8.60452 47.069 7.91247 47.314L8.52991 45.8375C8.87911 45.0006 8.81086 44.1319 8.33309 43.3412L8.33151 43.3396Z" fill="url(#paint17_linear_1006_1527)"/>
<path d="M68.1493 43.3428C67.5271 44.0603 67.362 44.9847 67.6588 45.8582L68.1684 47.3649C67.5017 47.0928 67.1509 46.5169 66.9239 45.9028C66.5287 44.832 66.7351 43.7549 67.4081 42.8416C68.0033 42.0318 68.2493 41.0947 68.0096 40.0764C69.9763 41.4383 70.2128 43.6355 68.8287 45.618C68.5922 45.2727 68.6414 44.8909 68.7477 44.5249C68.9652 43.7692 69.0033 42.9769 68.7334 42.2577L68.1509 43.3428H68.1493Z" fill="url(#paint18_linear_1006_1527)"/>
<path d="M4.78869 44.6474L3.66015 44.3881C3.99347 45.2313 4.52521 45.9075 5.30138 46.3562L5.31567 46.9449C3.45698 46.5758 2.67604 44.9036 2.60938 43.0055C3.0046 43.3014 3.37444 43.5449 3.83951 43.6546L5.10932 43.9506C5.88073 44.1304 6.46009 44.6793 6.7331 45.4605L6.16009 45.4859C5.83312 45.0325 5.36646 44.7811 4.79028 44.649L4.78869 44.6474Z" fill="url(#paint19_linear_1006_1527)"/>
<path d="M71.4523 44.6506C70.8809 44.7843 70.3762 44.9752 70.0127 45.4795L69.4619 45.4429C69.7206 44.6745 70.2571 44.2147 70.9936 43.9665L71.9968 43.7549C72.5714 43.6339 73.0714 43.4017 73.5142 43.0087C73.6221 44.9322 72.6603 46.7158 70.7635 46.9306L70.827 46.3991C71.6381 45.9473 72.246 45.2807 72.5698 44.3881L71.4523 44.649V44.6506Z" fill="url(#paint20_linear_1006_1527)"/>
<path d="M38.061 2.17175C37.8515 2.84635 37.8404 3.45094 37.8436 4.1669L37.1087 3.11841C36.7785 2.64588 36.7309 2.10334 37.0531 1.60853L38.0991 0.00159073L39.0975 1.53534C39.4277 2.04129 39.3753 2.63474 39.0308 3.12637L38.315 4.18759C38.3007 3.48594 38.3356 2.85749 38.061 2.17493V2.17175Z" fill="url(#paint21_linear_1006_1527)"/>
<path d="M6.36169 45.9521C6.88708 45.7659 7.37596 46.073 7.53468 46.5344C7.70611 47.0292 7.46326 47.5511 6.96803 47.7133C6.4982 47.8677 5.9744 47.6529 5.7998 47.1835C5.6252 46.7142 5.81567 46.1462 6.36328 45.9521H6.36169Z" fill="url(#paint22_linear_1006_1527)"/>
<path d="M68.4621 46.9831C68.4097 46.6585 68.5891 46.3085 68.7701 46.1414C69.0224 45.9075 69.3685 45.8439 69.6875 45.9441C70.1288 46.0841 70.37 46.5439 70.3097 46.9465C70.2414 47.3967 69.8811 47.7277 69.4716 47.7595C68.9986 47.7961 68.5494 47.5176 68.4637 46.9815L68.4621 46.9831Z" fill="url(#paint23_linear_1006_1527)"/>
<path d="M68.2367 47.7547C67.8589 48.9034 67.0923 49.0975 66.5129 50.0267C66.4843 49.4253 66.5637 48.8334 66.9113 48.3593C67.2097 47.9536 67.705 47.7722 68.2351 47.7563L68.2367 47.7547Z" fill="url(#paint24_linear_1006_1527)"/>
<path d="M9.48072 50.0124C9.15533 49.5446 8.81724 49.1914 8.37757 48.7936C8.09027 48.5327 7.95218 48.0825 7.80615 47.742C8.60137 47.7452 9.16009 48.2177 9.38072 48.8986C9.46643 49.2471 9.51881 49.5669 9.48072 50.0108V50.0124Z" fill="url(#paint25_linear_1006_1527)"/>
<path d="M40.7705 67.5789C39.7895 68.2297 38.9197 68.8565 38.0896 69.6313C37.1324 68.6799 36.1182 67.8987 34.9992 67.1684L29.4263 63.5298C27.9485 62.5656 26.5565 61.5807 25.2343 60.4161C22.9931 58.4432 21.1645 56.1076 19.8899 53.4044C18.7916 51.0768 18.3662 48.617 18.436 46.0412L18.7122 36.0002C18.7757 34.1037 18.7614 32.309 18.5154 30.4396C18.1852 28.3203 17.5186 26.3252 16.3599 24.5082C17.8392 23.2226 18.9376 21.6125 19.5646 19.7669C21.528 19.8958 23.3883 19.7192 25.2676 19.2642C27.1422 18.8155 28.8802 18.1855 30.6421 17.3979C33.2151 16.2205 35.6753 14.8841 38.0451 13.371C40.7054 15.0034 43.3863 16.4337 46.2211 17.6365C48.0449 18.3987 49.8433 18.9953 51.7734 19.3899C53.367 19.7081 54.9289 19.8544 56.5733 19.7494C57.1257 21.5839 58.2193 23.1797 59.6986 24.47C58.9383 25.6744 58.3733 26.9504 57.978 28.3314C57.5241 29.9591 57.2892 31.5644 57.2304 33.2636L57.3003 39.2793L57.4717 46.318C57.5987 51.5668 55.0146 56.4688 51.3036 60.0597C50.156 61.1703 48.9719 62.1392 47.6386 63.0254L40.7736 67.5821L40.7705 67.5789ZM39.8832 67.5853L43.7752 65.0237L48.5528 61.7478C50.4941 60.3095 52.1766 58.6373 53.575 56.6692C55.6844 53.6988 57.0416 50.1333 56.9574 46.4501L56.7495 37.3001L56.7225 33.1077C56.7955 31.2908 57.0622 29.5533 57.5987 27.8175C57.959 26.672 58.4288 25.6267 59.0431 24.575C57.7479 23.3818 56.7511 21.9578 56.2082 20.2952C54.6908 20.3683 53.2575 20.2108 51.7813 19.926C49.6433 19.4885 47.6465 18.8091 45.6354 17.95C43.0038 16.7917 40.4927 15.4568 38.0388 13.9835C35.7976 15.3964 33.5389 16.6262 31.1675 17.7288C29.0882 18.6819 26.9993 19.4392 24.7676 19.9149C23.1486 20.2395 21.5867 20.4161 19.9169 20.3206C19.2979 21.961 18.3408 23.3945 17.0329 24.61C17.7836 25.8844 18.3265 27.2336 18.6852 28.691C19.0201 30.0275 19.1614 31.3289 19.2487 32.7115L19.1868 38.0463L18.9487 46.3132C18.8741 48.9178 19.4138 51.4061 20.5947 53.7211C21.9169 56.3129 23.7549 58.5435 25.9803 60.4129L28.9263 62.5958L35.4674 66.8964C36.4261 67.5264 37.2753 68.201 38.0959 68.9663L39.8816 67.5821L39.8832 67.5853Z" fill="url(#paint26_linear_1006_1527)"/>
<path d="M38.066 62.922L34.9247 61.3739L30.809 59.2722C29.236 58.3605 27.782 57.3582 26.4598 56.1156C23.7012 53.5238 21.8139 49.9567 21.8361 46.1144L21.871 40.3023L21.9282 23.8495C24.0297 23.7031 26.0487 23.3197 28.0725 22.7581C30.3725 22.1057 32.5327 21.2864 34.7184 20.3349L38.0533 18.8044L42.4865 20.7725C46.2197 22.2585 50.1895 23.5774 54.2323 23.8479V46.4469C54.0053 50.9988 51.7831 54.5548 48.2832 57.3088C46.6324 58.6071 44.8531 59.6015 42.9658 60.5259L38.0691 62.9236L38.066 62.922ZM22.6742 24.5798L22.6266 39.2793L37.6691 39.2825V19.864L35.6009 20.8138C33.4946 21.7589 31.4026 22.5799 29.1868 23.2576C27.044 23.9147 24.8932 24.3698 22.6726 24.5798H22.6742ZM53.4736 24.5798C51.6752 24.408 49.9498 24.0595 48.2022 23.5806C45.7261 22.8838 43.3738 22.0278 41.0167 21.0159L38.4056 19.8719V39.2809L53.472 39.2841V24.5798H53.4736ZM32.9486 59.4869L37.6707 61.7971V40.0128L22.625 40.0096L22.5948 46.3848C22.6663 48.1763 23.1059 49.8342 23.9059 51.4252C25.8329 55.1784 29.1947 57.627 32.9486 59.4869ZM51.3085 52.9224C52.7942 50.687 53.5339 48.1636 53.4688 45.4986L53.4799 40.0112L38.4056 40.0144V61.8035L43.6738 59.2499C46.4991 57.8816 49.5498 55.5953 51.3085 52.9224Z" fill="url(#paint27_linear_1006_1527)"/>
<path d="M41.9309 30.457C42.169 30.2884 42.4262 30.1961 42.7214 30.0975L42.4706 28.3076C42.4024 27.8223 42.0865 27.3959 41.604 27.2575C41.2024 27.1429 40.8881 27.3832 40.5945 27.695C40.4786 27.3116 40.6881 27.0029 40.9167 26.7452C41.3611 26.2456 42.0849 26.1008 42.6531 26.4843C43.3896 26.9822 44.1658 27.1048 45.0864 27.0634C44.6737 27.5837 43.7992 27.5105 43.9214 28.1437L45.2134 34.8356L45.9404 35.4624L46.9737 34.4203L46.9562 28.1723C46.5816 28.0578 46.3023 28.0498 45.9197 28.0069C46.4927 27.6425 47.0086 27.3689 47.4673 26.96L48.1895 26.1422C48.4641 26.6799 48.9117 27.0523 49.4895 27.3514C48.8244 27.5296 48.2895 28.0212 48.288 28.7594L48.2737 33.8093L48.7864 34.2851C48.0213 34.6319 47.3975 34.8944 46.8213 35.4036C46.2436 35.9143 45.788 36.4982 45.3023 37.1601C44.7341 36.3168 44.0277 35.7568 43.0389 35.5722C43.1547 35.2429 43.715 35.2174 43.5865 34.5762L43.1531 32.4267C42.777 32.4761 42.6547 32.7115 42.4785 33.0202C42.1532 32.5158 42.4166 31.9367 42.9516 31.7092C43.0277 31.5421 42.9627 31.1682 42.8055 31.068C42.3817 30.7959 41.9341 31.0314 41.6563 31.4323C41.477 31.111 41.6008 30.6973 41.9325 30.4602L41.9309 30.457Z" fill="url(#paint28_linear_1006_1527)"/>
<path d="M31.4786 51.177C31.5754 51.9868 30.5961 52.2812 30.0294 53.0894C29.9501 53.204 29.904 53.2628 29.8088 53.2613C29.4501 52.3782 28.4771 52.0028 27.6708 52.4212C27.4819 52.5723 27.3073 52.7808 27.3073 52.994C27.3073 53.2072 27.4581 53.4124 27.6104 53.6813C27.0708 53.7624 26.6755 53.204 26.6898 52.6789C26.7041 52.1284 27.0359 51.6893 27.52 51.4618C28.4295 51.0338 29.1691 49.2296 29.4517 48.1413C29.5279 47.847 29.3898 47.5829 29.0549 47.5367C28.6501 47.4811 28.3231 47.7293 27.9962 47.9997C27.939 47.4811 28.2104 47.0849 28.539 46.8446C28.9263 46.563 29.3263 46.4501 29.8342 46.6123L30.185 44.5965C29.5406 44.3738 29.1501 44.6745 28.6136 45.015C28.6533 44.649 28.8231 44.3085 29.1152 44.1097L30.004 43.5019C30.404 43.2282 30.7707 42.9466 31.0437 42.4979L32.2373 43.8981C32.6516 44.3849 33.2183 44.6649 33.8421 44.9561C33.577 45.1756 33.2437 45.4159 33.3072 45.7755L34.2405 50.9718C34.2881 51.2327 34.5198 51.5429 34.7452 51.6241C35.1452 51.7705 35.4484 51.4729 35.6976 51.1213C35.9436 51.4984 35.6563 51.8548 35.3944 52.1189L34.25 53.2692C33.596 53.0512 33.0881 52.4514 32.9675 51.7784L32.6881 50.2033L29.3691 50.2081L28.7152 51.1452C29.2596 51.1834 29.7787 51.3377 30.2755 51.6034C30.4786 51.7116 30.7151 51.71 30.8977 51.5843L31.477 51.1834L31.4786 51.177ZM32.4072 48.4102L32.004 46.1303L30.8358 44.9354L30.0739 48.4357L32.4056 48.4102H32.4072ZM32.5786 49.4921L32.4675 48.8764L29.9183 48.8796L29.6866 49.4969L32.5786 49.4921Z" fill="url(#paint29_linear_1006_1527)"/>
<path d="M41.6086 45.0452C42.4038 44.0428 43.4847 43.3667 44.8022 43.303C44.0514 43.8344 43.3689 44.3038 42.8736 45.0516C41.753 46.746 41.7498 49.158 43.0832 50.687C43.3593 50.4276 43.6292 50.1699 43.7927 49.8517L43.799 45.5718L43.2308 45.4064L44.4911 44.5488C45.191 44.0715 45.772 43.4923 46.3291 42.8018C46.5704 43.4398 46.991 43.9108 47.6021 44.1463C47.9735 44.2847 48.3084 44.2226 48.7576 44.0635C48.2973 44.9784 47.3037 45.4048 46.2609 45.0706V52.06C47.4116 52.0139 48.1529 51.3457 48.8719 50.512C48.6481 51.8802 47.5434 52.8587 46.2482 53.1594C44.8022 53.4967 43.2879 53.099 42.1832 52.1157C40.1292 50.286 39.8832 47.2138 41.6054 45.0452H41.6086ZM43.3752 51.0625C44.0657 51.7307 44.8911 52.0934 45.8244 52.1078L45.8307 44.8415L45.3371 44.4358C45.2704 44.4804 45.1355 44.6952 45.1355 44.8097L45.1323 49.7849C44.4403 50.1619 43.8895 50.5708 43.3736 51.0625H43.3752Z" fill="url(#paint30_linear_1006_1527)"/>
<path d="M28.7614 30.3632C28.782 29.9304 28.7328 29.434 28.8788 29.0363C29.2804 27.9384 30.6581 27.3004 30.7534 27.5057C30.8486 27.7109 30.3042 28.1055 30.3026 28.5478L30.2899 32.3026C30.2883 32.834 30.2423 33.3273 29.8613 33.7218L29.255 34.3503L30.8724 34.3726V26.8295L29.2963 27.6712C28.3661 28.1676 27.2931 27.2782 26.6741 27.8844C26.4693 28.0848 26.4408 28.3967 26.417 28.8151C25.9408 28.5303 25.817 27.8923 26.0408 27.3307C26.2693 26.7579 26.8963 26.2472 27.536 26.2535C28.9439 27.0252 30.4359 26.7086 31.6407 25.719L33.5787 26.8311C34.5438 27.3848 35.3152 28.3537 35.3247 29.4945L35.3549 33.6677C35.3549 33.8459 35.5469 34.1037 35.6564 34.2994L34.0517 34.974C33.2279 35.4051 32.547 35.9843 31.9724 36.775C31.174 35.402 29.4169 34.9215 28.0836 35.7456C27.8645 35.8809 27.6661 36.1322 27.6312 36.3152C27.5788 36.5841 27.7106 36.8323 27.8677 37.1139C27.3296 37.1982 26.9931 36.6971 27.0233 36.2038C27.0598 35.6327 27.4217 35.3001 27.8741 34.9883C28.4042 34.6224 28.7233 33.9255 28.7439 33.27L28.7963 31.5644C28.1074 31.3512 27.5106 31.663 27.2566 32.344C26.9265 31.7362 27.2106 31.1078 27.7201 30.7323C27.9963 30.5286 28.3518 30.4523 28.7629 30.3648L28.7614 30.3632ZM33.9549 33.9764L33.9343 29.6631C33.9295 28.5478 32.5216 27.3498 31.3788 26.9027L31.3835 34.546L32.6454 35.1665C33.0327 34.7433 33.4549 34.336 33.9565 33.9764H33.9549Z" fill="url(#paint31_linear_1006_1527)"/>
</g>
<defs>
<linearGradient id="paint0_linear_1006_1527" x1="13.9753" y1="24.3874" x2="63.8689" y2="26.3502" gradientUnits="userSpaceOnUse">
<stop stop-color="#A17F57"/>
<stop offset="0.307692" stop-color="#E3B97E"/>
<stop offset="0.495192" stop-color="#F0C88B"/>
<stop offset="1" stop-color="#C29C6B"/>
</linearGradient>
<linearGradient id="paint1_linear_1006_1527" x1="12.2804" y1="68.0025" x2="33.349" y2="69.6814" gradientUnits="userSpaceOnUse">
<stop stop-color="#A17F57"/>
<stop offset="0.307692" stop-color="#E3B97E"/>
<stop offset="0.495192" stop-color="#F0C88B"/>
<stop offset="1" stop-color="#C29C6B"/>
</linearGradient>
<linearGradient id="paint2_linear_1006_1527" x1="43.4783" y1="68.0047" x2="64.2725" y2="69.6411" gradientUnits="userSpaceOnUse">
<stop stop-color="#A17F57"/>
<stop offset="0.307692" stop-color="#E3B97E"/>
<stop offset="0.495192" stop-color="#F0C88B"/>
<stop offset="1" stop-color="#C29C6B"/>
</linearGradient>
<linearGradient id="paint3_linear_1006_1527" x1="28.0373" y1="4.14065" x2="48.175" y2="7.98342" gradientUnits="userSpaceOnUse">
<stop stop-color="#A17F57"/>
<stop offset="0.307692" stop-color="#E3B97E"/>
<stop offset="0.495192" stop-color="#F0C88B"/>
<stop offset="1" stop-color="#C29C6B"/>
</linearGradient>
<linearGradient id="paint4_linear_1006_1527" x1="55.4284" y1="47.5534" x2="66.167" y2="47.8403" gradientUnits="userSpaceOnUse">
<stop stop-color="#A17F57"/>
<stop offset="0.307692" stop-color="#E3B97E"/>
<stop offset="0.495192" stop-color="#F0C88B"/>
<stop offset="1" stop-color="#C29C6B"/>
</linearGradient>
<linearGradient id="paint5_linear_1006_1527" x1="10.1949" y1="47.5368" x2="21.0264" y2="47.8285" gradientUnits="userSpaceOnUse">
<stop stop-color="#A17F57"/>
<stop offset="0.307692" stop-color="#E3B97E"/>
<stop offset="0.495192" stop-color="#F0C88B"/>
<stop offset="1" stop-color="#C29C6B"/>
</linearGradient>
<linearGradient id="paint6_linear_1006_1527" x1="51.1506" y1="54.4737" x2="74.1888" y2="56.5108" gradientUnits="userSpaceOnUse">
<stop stop-color="#A17F57"/>
<stop offset="0.307692" stop-color="#E3B97E"/>
<stop offset="0.495192" stop-color="#F0C88B"/>
<stop offset="1" stop-color="#C29C6B"/>
</linearGradient>
<linearGradient id="paint7_linear_1006_1527" x1="2.44394" y1="54.4633" x2="25.6318" y2="56.5262" gradientUnits="userSpaceOnUse">
<stop stop-color="#A17F57"/>
<stop offset="0.307692" stop-color="#E3B97E"/>
<stop offset="0.495192" stop-color="#F0C88B"/>
<stop offset="1" stop-color="#C29C6B"/>
</linearGradient>
<linearGradient id="paint8_linear_1006_1527" x1="6.47641" y1="60.1724" x2="19.4093" y2="61.2278" gradientUnits="userSpaceOnUse">
<stop stop-color="#A17F57"/>
<stop offset="0.307692" stop-color="#E3B97E"/>
<stop offset="0.495192" stop-color="#F0C88B"/>
<stop offset="1" stop-color="#C29C6B"/>
</linearGradient>
<linearGradient id="paint9_linear_1006_1527" x1="57.0103" y1="60.1836" x2="69.8805" y2="61.2376" gradientUnits="userSpaceOnUse">
<stop stop-color="#A17F57"/>
<stop offset="0.307692" stop-color="#E3B97E"/>
<stop offset="0.495192" stop-color="#F0C88B"/>
<stop offset="1" stop-color="#C29C6B"/>
</linearGradient>
<linearGradient id="paint10_linear_1006_1527" x1="31.3012" y1="8.12058" x2="44.6198" y2="11.3982" gradientUnits="userSpaceOnUse">
<stop stop-color="#A17F57"/>
<stop offset="0.307692" stop-color="#E3B97E"/>
<stop offset="0.495192" stop-color="#F0C88B"/>
<stop offset="1" stop-color="#C29C6B"/>
</linearGradient>
<linearGradient id="paint11_linear_1006_1527" x1="38.6703" y1="74.7918" x2="45.4926" y2="75.1848" gradientUnits="userSpaceOnUse">
<stop stop-color="#A17F57"/>
<stop offset="0.307692" stop-color="#E3B97E"/>
<stop offset="0.495192" stop-color="#F0C88B"/>
<stop offset="1" stop-color="#C29C6B"/>
</linearGradient>
<linearGradient id="paint12_linear_1006_1527" x1="30.8512" y1="74.7862" x2="37.6488" y2="75.1774" gradientUnits="userSpaceOnUse">
<stop stop-color="#A17F57"/>
<stop offset="0.307692" stop-color="#E3B97E"/>
<stop offset="0.495192" stop-color="#F0C88B"/>
<stop offset="1" stop-color="#C29C6B"/>
</linearGradient>
<linearGradient id="paint13_linear_1006_1527" x1="36.3981" y1="76.2788" x2="39.7634" y2="76.3534" gradientUnits="userSpaceOnUse">
<stop stop-color="#A17F57"/>
<stop offset="0.307692" stop-color="#E3B97E"/>
<stop offset="0.495192" stop-color="#F0C88B"/>
<stop offset="1" stop-color="#C29C6B"/>
</linearGradient>
<linearGradient id="paint14_linear_1006_1527" x1="31.9207" y1="9.92888" x2="43.3914" y2="13.7829" gradientUnits="userSpaceOnUse">
<stop stop-color="#A17F57"/>
<stop offset="0.307692" stop-color="#E3B97E"/>
<stop offset="0.495192" stop-color="#F0C88B"/>
<stop offset="1" stop-color="#C29C6B"/>
</linearGradient>
<linearGradient id="paint15_linear_1006_1527" x1="0.00887132" y1="47.2282" x2="7.73709" y2="48.1347" gradientUnits="userSpaceOnUse">
<stop stop-color="#A17F57"/>
<stop offset="0.307692" stop-color="#E3B97E"/>
<stop offset="0.495192" stop-color="#F0C88B"/>
<stop offset="1" stop-color="#C29C6B"/>
</linearGradient>
<linearGradient id="paint16_linear_1006_1527" x1="68.4566" y1="47.239" x2="76.1792" y2="48.152" gradientUnits="userSpaceOnUse">
<stop stop-color="#A17F57"/>
<stop offset="0.307692" stop-color="#E3B97E"/>
<stop offset="0.495192" stop-color="#F0C88B"/>
<stop offset="1" stop-color="#C29C6B"/>
</linearGradient>
<linearGradient id="paint17_linear_1006_1527" x1="6.70725" y1="41.5139" x2="9.69781" y2="41.572" gradientUnits="userSpaceOnUse">
<stop stop-color="#A17F57"/>
<stop offset="0.307692" stop-color="#E3B97E"/>
<stop offset="0.495192" stop-color="#F0C88B"/>
<stop offset="1" stop-color="#C29C6B"/>
</linearGradient>
<linearGradient id="paint18_linear_1006_1527" x1="66.7276" y1="41.6508" x2="69.8197" y2="41.7139" gradientUnits="userSpaceOnUse">
<stop stop-color="#A17F57"/>
<stop offset="0.307692" stop-color="#E3B97E"/>
<stop offset="0.495192" stop-color="#F0C88B"/>
<stop offset="1" stop-color="#C29C6B"/>
</linearGradient>
<linearGradient id="paint19_linear_1006_1527" x1="2.61422" y1="43.8565" x2="6.87918" y2="44.0791" gradientUnits="userSpaceOnUse">
<stop stop-color="#A17F57"/>
<stop offset="0.307692" stop-color="#E3B97E"/>
<stop offset="0.495192" stop-color="#F0C88B"/>
<stop offset="1" stop-color="#C29C6B"/>
</linearGradient>
<linearGradient id="paint20_linear_1006_1527" x1="69.4667" y1="43.8559" x2="73.6665" y2="44.0727" gradientUnits="userSpaceOnUse">
<stop stop-color="#A17F57"/>
<stop offset="0.307692" stop-color="#E3B97E"/>
<stop offset="0.495192" stop-color="#F0C88B"/>
<stop offset="1" stop-color="#C29C6B"/>
</linearGradient>
<linearGradient id="paint21_linear_1006_1527" x1="36.8376" y1="0.905835" x2="39.4119" y2="0.982023" gradientUnits="userSpaceOnUse">
<stop stop-color="#A17F57"/>
<stop offset="0.307692" stop-color="#E3B97E"/>
<stop offset="0.495192" stop-color="#F0C88B"/>
<stop offset="1" stop-color="#C29C6B"/>
</linearGradient>
<linearGradient id="paint22_linear_1006_1527" x1="5.73924" y1="46.2999" x2="7.65555" y2="46.3948" gradientUnits="userSpaceOnUse">
<stop stop-color="#A17F57"/>
<stop offset="0.307692" stop-color="#E3B97E"/>
<stop offset="0.495192" stop-color="#F0C88B"/>
<stop offset="1" stop-color="#C29C6B"/>
</linearGradient>
<linearGradient id="paint23_linear_1006_1527" x1="68.4551" y1="46.301" x2="70.3854" y2="46.3974" gradientUnits="userSpaceOnUse">
<stop stop-color="#A17F57"/>
<stop offset="0.307692" stop-color="#E3B97E"/>
<stop offset="0.495192" stop-color="#F0C88B"/>
<stop offset="1" stop-color="#C29C6B"/>
</linearGradient>
<linearGradient id="paint24_linear_1006_1527" x1="66.5096" y1="48.2455" x2="68.3002" y2="48.3134" gradientUnits="userSpaceOnUse">
<stop stop-color="#A17F57"/>
<stop offset="0.307692" stop-color="#E3B97E"/>
<stop offset="0.495192" stop-color="#F0C88B"/>
<stop offset="1" stop-color="#C29C6B"/>
</linearGradient>
<linearGradient id="paint25_linear_1006_1527" x1="7.80813" y1="48.2324" x2="9.55547" y2="48.2972" gradientUnits="userSpaceOnUse">
<stop stop-color="#A17F57"/>
<stop offset="0.307692" stop-color="#E3B97E"/>
<stop offset="0.495192" stop-color="#F0C88B"/>
<stop offset="1" stop-color="#C29C6B"/>
</linearGradient>
<linearGradient id="paint26_linear_1006_1527" x1="16.4108" y1="25.5242" x2="61.2898" y2="27.2482" gradientUnits="userSpaceOnUse">
<stop stop-color="#A17F57"/>
<stop offset="0.307692" stop-color="#E3B97E"/>
<stop offset="0.495192" stop-color="#F0C88B"/>
<stop offset="1" stop-color="#C29C6B"/>
</linearGradient>
<linearGradient id="paint27_linear_1006_1527" x1="21.874" y1="28.3348" x2="55.4262" y2="29.5634" gradientUnits="userSpaceOnUse">
<stop stop-color="#A17F57"/>
<stop offset="0.307692" stop-color="#E3B97E"/>
<stop offset="0.495192" stop-color="#F0C88B"/>
<stop offset="1" stop-color="#C29C6B"/>
</linearGradient>
<linearGradient id="paint28_linear_1006_1527" x1="40.572" y1="28.5222" x2="49.8158" y2="28.8958" gradientUnits="userSpaceOnUse">
<stop stop-color="#A17F57"/>
<stop offset="0.307692" stop-color="#E3B97E"/>
<stop offset="0.495192" stop-color="#F0C88B"/>
<stop offset="1" stop-color="#C29C6B"/>
</linearGradient>
<linearGradient id="paint29_linear_1006_1527" x1="26.7001" y1="44.9154" x2="36.1238" y2="45.2976" gradientUnits="userSpaceOnUse">
<stop stop-color="#A17F57"/>
<stop offset="0.307692" stop-color="#E3B97E"/>
<stop offset="0.495192" stop-color="#F0C88B"/>
<stop offset="1" stop-color="#C29C6B"/>
</linearGradient>
<linearGradient id="paint30_linear_1006_1527" x1="40.4713" y1="45.0647" x2="49.1796" y2="45.4134" gradientUnits="userSpaceOnUse">
<stop stop-color="#A17F57"/>
<stop offset="0.307692" stop-color="#E3B97E"/>
<stop offset="0.495192" stop-color="#F0C88B"/>
<stop offset="1" stop-color="#C29C6B"/>
</linearGradient>
<linearGradient id="paint31_linear_1006_1527" x1="25.9443" y1="28.1825" x2="36.0101" y2="28.6105" gradientUnits="userSpaceOnUse">
<stop stop-color="#A17F57"/>
<stop offset="0.307692" stop-color="#E3B97E"/>
<stop offset="0.495192" stop-color="#F0C88B"/>
<stop offset="1" stop-color="#C29C6B"/>
</linearGradient>
<clipPath id="clip0_1006_1527">
<rect width="76" height="82" fill="white"/>
</clipPath>
</defs>
</svg>
