<svg width="160" height="28" viewBox="0 0 160 28" fill="none" xmlns="http://www.w3.org/2000/svg">
<path d="M20.7743 0.190982C19.982 0.334218 19.2214 0.58886 18.4925 0.954908C17.7794 1.32096 17.1297 1.78249 16.5434 2.33952C16.9079 2.68966 17.2169 3.08753 17.4704 3.53316C17.7239 3.97878 17.9299 4.44828 18.0884 4.94164C18.2469 5.4191 18.3578 5.91247 18.4212 6.42175C18.5004 6.93103 18.54 7.4244 18.54 7.90186C18.54 9.33422 18.231 10.6711 17.613 11.9125C16.995 13.1379 16.1789 14.2042 15.1648 15.1114C14.1665 16.0027 13.0335 16.7109 11.7658 17.2361C10.4981 17.7454 9.21455 18 7.91516 18C7.42393 18 6.98816 17.9841 6.60786 17.9523C6.22755 17.9363 5.87893 17.9045 5.56201 17.8568C5.26093 17.8249 4.9757 17.7772 4.70631 17.7135C4.45278 17.6658 4.19131 17.6101 3.92193 17.5464C3.70008 17.5782 3.48616 17.6101 3.28016 17.6419C3.09 17.6897 2.89193 17.7294 2.68593 17.7613C2.49577 17.7931 2.27393 17.817 2.02039 17.8329C1.78269 17.8488 1.50539 17.8568 1.18846 17.8568C0.808155 17.8568 0.515001 17.817 0.309 17.7374C0.103 17.6737 0 17.5464 0 17.3554C0 17.1645 0.0792309 17.0371 0.237693 16.9735C0.412001 16.8939 0.633847 16.8541 0.903232 16.8541C1.09339 16.8541 1.27562 16.87 1.44993 16.9019C1.64008 16.9178 1.84608 16.9496 2.06793 16.9973C2.30562 17.0451 2.56708 17.1008 2.85231 17.1645C3.13754 17.2122 3.48616 17.2679 3.89816 17.3316C4.70631 17.1247 5.44316 16.7029 6.1087 16.0663C6.79009 15.4297 7.43186 14.6737 8.03401 13.7984C8.65201 12.9231 9.25417 11.9602 9.84048 10.9098C10.4268 9.85942 11.0289 8.81698 11.6469 7.78249C12.2808 6.7321 12.9463 5.72944 13.6436 4.77454C14.3566 3.81963 15.1331 2.99204 15.9729 2.29178C15.3074 1.73475 14.5626 1.34483 13.7386 1.12202C12.9305 0.883289 12.1857 0.763926 11.5043 0.763926C10.2208 0.763926 8.96894 0.986737 7.74878 1.43236C6.54447 1.87798 5.46693 2.49867 4.51616 3.29443C3.58124 4.09019 2.82854 5.02918 2.25808 6.11141C1.68762 7.19363 1.40239 8.37135 1.40239 9.64456C1.40239 10.1538 1.44992 10.6393 1.545 11.1008C1.64008 11.5464 1.80646 11.9443 2.04416 12.2944C2.28185 12.6446 2.59085 12.9231 2.97116 13.13C3.35147 13.321 3.82685 13.4164 4.39731 13.4164C5.11039 13.4164 5.76009 13.2493 6.34639 12.9151C6.94855 12.565 7.45563 12.1034 7.86763 11.5305C8.29547 10.9416 8.62824 10.2653 8.86594 9.50133C9.10363 8.72149 9.22247 7.90981 9.22247 7.06631V6.25464H9.50771V6.94695C9.50771 7.93369 9.37301 8.84881 9.10363 9.69231C8.83424 10.5199 8.45393 11.244 7.9627 11.8647C7.47147 12.4695 6.89309 12.9469 6.22755 13.2971C5.56201 13.6313 4.83308 13.7984 4.04078 13.7984C3.43862 13.7984 2.90777 13.687 2.44823 13.4642C2.00454 13.2255 1.63216 12.9151 1.33108 12.5332C1.04585 12.1512 0.824001 11.7056 0.665539 11.1963C0.522924 10.687 0.451616 10.1538 0.451616 9.59682C0.451616 8.61008 0.728924 7.58355 1.28354 6.51724C1.854 5.45093 2.63047 4.47215 3.61293 3.5809C4.59539 2.67374 5.75216 1.93369 7.08324 1.36074C8.43017 0.771883 9.88009 0.477453 11.433 0.477453C12.3521 0.477453 13.2157 0.620689 14.0239 0.907161C14.832 1.17772 15.5689 1.56764 16.2344 2.07692C16.8999 1.56764 17.6051 1.12997 18.3499 0.763926C19.0946 0.381963 19.887 0.127321 20.7268 0L20.7743 0.190982ZM7.51109 17.7135C8.62032 17.7135 9.63448 17.5464 10.5536 17.2122C11.4726 16.878 12.2966 16.4324 13.0256 15.8753C13.7703 15.3024 14.4121 14.634 14.9509 13.87C15.4896 13.1061 15.9413 12.3024 16.3057 11.4589C16.6702 10.5995 16.9396 9.72414 17.1139 8.83289C17.304 7.92573 17.3991 7.0504 17.3991 6.2069C17.3991 5.57029 17.3119 4.93369 17.1376 4.29708C16.9633 3.64456 16.6781 3.10345 16.2819 2.67374C15.6323 3.40584 15.0301 4.23342 14.4755 5.1565C13.9367 6.07958 13.3979 7.03448 12.8592 8.02122C12.3204 9.00796 11.7658 9.98674 11.1953 10.9576C10.6249 11.9284 10.0069 12.8355 9.34132 13.679C8.67578 14.5225 7.93101 15.2785 7.10701 15.9469C6.29886 16.5995 5.37185 17.0928 4.32601 17.4271V17.4748C4.81724 17.5703 5.30847 17.634 5.7997 17.6658C6.30678 17.6976 6.87724 17.7135 7.51109 17.7135Z" fill="white"/>
<path d="M29.8226 0.740053C28.9669 1.40849 28.2459 2.17241 27.6596 3.03183C27.0733 3.87533 26.5583 4.76658 26.1146 5.70557C25.6868 6.64456 25.2985 7.61538 24.9499 8.61804C24.6013 9.62069 24.2289 10.6074 23.8328 11.5782C23.4525 12.5491 23.0167 13.496 22.5255 14.4191C22.0342 15.3263 21.4242 16.1698 20.6952 16.9496L20.7428 16.9973C21.6777 16.4403 22.5572 15.9072 23.3812 15.3979C24.221 14.8727 25.0212 14.3634 25.7819 13.87C27.7785 12.5809 29.3552 11.3475 30.5119 10.1698C31.6687 8.99204 32.5402 7.91777 33.1266 6.94695C33.7129 5.96021 34.0852 5.1008 34.2437 4.3687C34.4022 3.63661 34.4814 3.08753 34.4814 2.72149C34.2754 2.65783 34.1328 2.55438 34.0536 2.41114C33.9902 2.2679 33.9585 2.09284 33.9585 1.88594C33.9585 1.61538 34.0456 1.39257 34.2199 1.21751C34.3942 1.04244 34.6161 0.954908 34.8855 0.954908C35.2975 0.954908 35.5748 1.09814 35.7174 1.38462C35.8759 1.65517 35.9551 2.02122 35.9551 2.48276C35.9551 3.10345 35.8046 3.76393 35.5035 4.46419C35.2183 5.14854 34.8142 5.84881 34.2912 6.56499C33.7842 7.26525 33.1899 7.97347 32.5086 8.68966C31.8272 9.40584 31.0982 10.0981 30.3218 10.7666C29.5612 11.435 28.7609 12.0716 27.9211 12.6764C27.0971 13.2812 26.2889 13.8302 25.4966 14.3236C24.5617 14.8966 23.6268 15.4695 22.6918 16.0424C21.7569 16.6154 20.7824 17.2042 19.7682 17.809L19.6494 17.6897C20.204 16.878 20.6794 16.0106 21.0755 15.0875C21.4875 14.1485 21.8678 13.1857 22.2165 12.1989C22.5651 11.2122 22.9137 10.2255 23.2623 9.23873C23.6268 8.25199 24.0388 7.30504 24.4983 6.39788C24.9579 5.4748 25.5045 4.61539 26.1384 3.81963C26.7722 3.02387 27.5408 2.33157 28.444 1.74271L28.3965 1.69496C27.7309 2.04509 27.0099 2.31565 26.2335 2.50663C25.457 2.6817 24.6647 2.88064 23.8565 3.10345C23.3336 3.24668 22.7632 3.43767 22.1452 3.67639C21.543 3.91512 20.9805 4.22546 20.4575 4.60743C19.9346 4.97347 19.4909 5.41114 19.1265 5.92042C18.7778 6.41379 18.6035 6.9947 18.6035 7.66313C18.6035 8.22016 18.7778 8.64987 19.1265 8.95226C19.4751 9.25464 19.8871 9.40584 20.3625 9.40584C20.6477 9.40584 20.925 9.35013 21.1944 9.23873C21.4796 9.11141 21.7252 8.95226 21.9312 8.76127C22.1531 8.55438 22.3274 8.30769 22.4542 8.02122C22.5809 7.73475 22.6443 7.4244 22.6443 7.09019C22.6443 6.93103 22.6443 6.7878 22.6443 6.66048C22.6443 6.53316 22.6285 6.39788 22.5968 6.25464H22.8582C22.8741 6.38196 22.8899 6.51724 22.9058 6.66048C22.9216 6.80371 22.9295 6.96286 22.9295 7.13793C22.9295 7.47215 22.8582 7.79045 22.7156 8.09284C22.5888 8.39523 22.4066 8.66578 22.1689 8.90451C21.9312 9.14324 21.646 9.33422 21.3132 9.47745C20.9963 9.62069 20.6556 9.69231 20.2912 9.69231C19.6256 9.69231 19.0631 9.50133 18.6035 9.11936C18.1598 8.72149 17.938 8.18037 17.938 7.49602C17.938 6.74801 18.1281 6.11936 18.5085 5.61008C18.9046 5.08488 19.3879 4.64722 19.9584 4.29708C20.5288 3.93103 21.1389 3.6366 21.7886 3.41379C22.4383 3.19098 23.0246 3.00796 23.5475 2.86472C23.9595 2.7374 24.4349 2.61804 24.9737 2.50663C25.5283 2.37931 26.0829 2.23607 26.6375 2.07692C27.1922 1.91777 27.7309 1.72679 28.2539 1.50398C28.7926 1.26525 29.2601 0.970822 29.6562 0.62069L29.8226 0.740053Z" fill="white"/>
<path d="M39.8694 10.1936C39.0929 11.1804 38.2927 12.1353 37.4687 13.0584C36.6447 13.9655 35.8128 14.7772 34.9729 15.4934C34.1489 16.1936 33.3249 16.7586 32.5009 17.1883C31.6769 17.6021 30.8846 17.809 30.124 17.809C29.6011 17.809 29.1812 17.7454 28.8642 17.618C28.5632 17.5066 28.3255 17.3714 28.1512 17.2122C27.9927 17.0371 27.8818 16.8621 27.8184 16.687C27.7709 16.496 27.7471 16.3289 27.7471 16.1857C27.7471 15.9151 27.8263 15.6844 27.9848 15.4934C28.1432 15.3024 28.3651 15.2069 28.6503 15.2069C28.9039 15.2069 29.1019 15.2944 29.2445 15.4695C29.3872 15.6446 29.4585 15.8515 29.4585 16.0902C29.4585 16.2334 29.4189 16.3767 29.3396 16.5199C29.2604 16.6631 29.1495 16.7507 29.0069 16.7825C29.1495 17.0053 29.3475 17.1565 29.6011 17.2361C29.8546 17.2997 30.1161 17.3316 30.3855 17.3316C31.0669 17.3316 31.7799 17.1326 32.5247 16.7347C33.2853 16.3369 34.0459 15.8196 34.8066 15.183C35.583 14.5305 36.3516 13.7984 37.1122 12.9867C37.8728 12.1592 38.6017 11.3156 39.2989 10.4562C39.6 10.0743 39.9724 9.60477 40.4161 9.04774C40.8756 8.49072 41.3906 7.88594 41.9611 7.23342C42.5316 6.5809 43.1496 5.92042 43.8151 5.25199C44.4965 4.56764 45.2175 3.92308 45.9781 3.3183C46.7387 2.71353 47.531 2.17241 48.355 1.69496C49.179 1.21751 50.0189 0.859417 50.8746 0.62069L50.9459 0.716181C50.4071 1.20955 49.8446 1.82228 49.2583 2.55438C48.672 3.28647 48.0936 4.08223 47.5231 4.94164C46.9685 5.78515 46.4376 6.67639 45.9306 7.61539C45.4235 8.55438 44.9719 9.49337 44.5757 10.4324C44.1954 11.3554 43.8864 12.2467 43.6487 13.1061C43.4269 13.9655 43.316 14.7533 43.316 15.4695C43.316 15.9629 43.3952 16.3846 43.5536 16.7347C43.728 17.069 44.0686 17.2361 44.5757 17.2361C44.8768 17.2361 45.2175 17.1247 45.5978 16.9019C45.994 16.679 46.406 16.3846 46.8338 16.0186C47.2617 15.6525 47.6816 15.2467 48.0936 14.8011C48.5214 14.3554 48.9255 13.9178 49.3058 13.4881C49.6861 13.0424 50.0268 12.6286 50.3279 12.2467C50.629 11.8488 50.8667 11.5305 51.041 11.2918L51.2073 11.3634C50.6686 12.0477 50.0981 12.7719 49.496 13.5358C48.8938 14.2997 48.2837 15 47.6657 15.6366C47.0477 16.2573 46.4218 16.7745 45.788 17.1883C45.17 17.6021 44.5757 17.809 44.0053 17.809C43.625 17.809 43.3001 17.7454 43.0307 17.618C42.7772 17.4748 42.5633 17.2838 42.389 17.0451C42.2146 16.8064 42.0879 16.5358 42.0086 16.2334C41.9294 15.931 41.8898 15.6127 41.8898 15.2785C41.8898 14.3714 42.0166 13.504 42.2701 12.6764C42.5236 11.8329 42.8089 11.0053 43.1258 10.1936H39.8694ZM43.2446 9.90716C43.9577 8.42706 44.7976 6.97878 45.7642 5.56234C46.7467 4.14589 47.9034 2.80106 49.2345 1.52785L49.187 1.48011C48.3471 1.8939 47.5231 2.40318 46.715 3.00796C45.9226 3.61273 45.1462 4.28117 44.3856 5.01326C43.625 5.74536 42.8802 6.5252 42.1513 7.35279C41.4382 8.18037 40.7409 9.03183 40.0596 9.90716H43.2446Z" fill="white"/>
<path d="M55.2561 10.1698C55.2561 9.94695 55.1927 9.77984 55.066 9.66844C54.955 9.55703 54.8124 9.50133 54.6381 9.50133C54.3053 9.50133 53.9409 9.63661 53.5447 9.90716C53.1644 10.1618 52.7841 10.4881 52.4038 10.8859C52.0235 11.2679 51.6749 11.6817 51.3579 12.1273C51.0569 12.5729 50.8271 12.9708 50.6686 13.321C51.0173 13.2573 51.453 13.1379 51.9759 12.9629C52.4989 12.7719 52.998 12.5411 53.4734 12.2706C53.9646 12 54.3846 11.6897 54.7332 11.3395C55.0818 10.9735 55.2561 10.5836 55.2561 10.1698ZM59.1067 11.435C58.869 11.8329 58.568 12.2706 58.2035 12.748C57.8549 13.2255 57.4508 13.7029 56.9913 14.1804C56.5476 14.6419 56.0643 15.0955 55.5413 15.5411C55.0343 15.9708 54.5034 16.3607 53.9488 16.7109C53.3942 17.0451 52.8316 17.3157 52.2612 17.5225C51.7066 17.7135 51.1599 17.809 50.6211 17.809C49.9556 17.809 49.4406 17.6419 49.0761 17.3077C48.7116 16.9576 48.5294 16.4642 48.5294 15.8276C48.5294 15.1273 48.7354 14.3952 49.1474 13.6313C49.5753 12.8515 50.114 12.1353 50.7637 11.4828C51.4134 10.8302 52.1265 10.2891 52.903 9.85942C53.6794 9.42971 54.4242 9.21485 55.1373 9.21485C55.5334 9.21485 55.8424 9.30239 56.0643 9.47745C56.2861 9.6366 56.397 9.87533 56.397 10.1936C56.397 10.5756 56.191 10.9496 55.779 11.3157C55.367 11.6658 54.86 11.992 54.2578 12.2944C53.6715 12.5809 53.0376 12.8435 52.3563 13.0822C51.6749 13.305 51.0727 13.4721 50.5498 13.5836C50.3755 13.9019 50.2329 14.2599 50.1219 14.6578C50.011 15.0557 49.9556 15.4536 49.9556 15.8515C49.9556 16.0424 49.9714 16.2334 50.0031 16.4244C50.0506 16.5995 50.114 16.7666 50.1933 16.9257C50.2883 17.069 50.4072 17.1883 50.5498 17.2838C50.7083 17.3793 50.8984 17.4271 51.1203 17.4271C51.6432 17.4271 52.2533 17.2599 52.9505 16.9257C53.6636 16.5756 54.3846 16.1141 55.1135 15.5411C55.8424 14.9682 56.5396 14.3156 57.2052 13.5836C57.8707 12.8515 58.4412 12.0955 58.9166 11.3157L59.1067 11.435Z" fill="white"/>
<path d="M66.9508 11.4589C66.4754 12.2228 65.9208 12.9867 65.2869 13.7507C64.6689 14.4987 63.9875 15.1751 63.2428 15.7798C62.498 16.3846 61.6819 16.878 60.7945 17.2599C59.923 17.626 58.9881 17.809 57.9898 17.809C57.6095 17.809 57.2529 17.7613 56.9201 17.6658C56.5874 17.5703 56.2942 17.4271 56.0407 17.2361C55.803 17.0451 55.6128 16.8064 55.4702 16.5199C55.3118 16.2175 55.2325 15.8674 55.2325 15.4695C55.2325 15.0557 55.3672 14.6817 55.6366 14.3475C55.906 14.0133 56.2705 13.8462 56.73 13.8462C56.9677 13.8462 57.1578 13.9098 57.3005 14.0371C57.4589 14.1485 57.5381 14.3236 57.5381 14.5623C57.5381 14.7851 57.4827 14.9761 57.3718 15.1353C57.2608 15.2944 57.0945 15.374 56.8726 15.374C56.6983 15.374 56.5557 15.3263 56.4448 15.2308C56.3497 15.1353 56.2863 15.0159 56.2546 14.8727C56.0803 14.9682 55.9614 15.1114 55.8981 15.3024C55.8347 15.4775 55.803 15.6605 55.803 15.8515C55.803 16.4085 56.009 16.8302 56.421 17.1167C56.8488 17.3873 57.3242 17.5225 57.8471 17.5225C58.1799 17.5225 58.4651 17.4589 58.7028 17.3316C58.9564 17.1883 59.1624 17.0133 59.3208 16.8064C59.4952 16.5836 59.6219 16.3289 59.7011 16.0424C59.7804 15.756 59.82 15.4695 59.82 15.183C59.82 14.8806 59.7645 14.5703 59.6536 14.252C59.5585 13.9178 59.4476 13.5915 59.3208 13.2732C59.1941 12.9549 59.0752 12.6446 58.9643 12.3422C58.8534 12.0239 58.7979 11.7294 58.7979 11.4589C58.7979 11.1088 58.8692 10.7984 59.0118 10.5279C59.1545 10.2414 59.3446 10.0027 59.5823 9.81167C59.8358 9.62069 60.1211 9.47745 60.438 9.38196C60.7549 9.27056 61.0877 9.21485 61.4363 9.21485C62.0701 9.21485 62.5852 9.35809 62.9813 9.64456C63.3775 9.91512 63.5755 10.2812 63.5755 10.7427C63.5755 11.1565 63.4171 11.4589 63.1002 11.6499C62.7991 11.8408 62.4584 11.9363 62.0781 11.9363C62.1732 11.7613 62.2524 11.5544 62.3158 11.3157C62.395 11.061 62.4346 10.8302 62.4346 10.6233C62.4346 10.305 62.3316 10.0424 62.1256 9.83554C61.9355 9.61273 61.6581 9.50133 61.2937 9.50133C60.8341 9.50133 60.4935 9.64456 60.2716 9.93103C60.0498 10.2016 59.9388 10.5358 59.9388 10.9337C59.9388 11.2838 59.9943 11.618 60.1052 11.9363C60.232 12.2546 60.3746 12.5729 60.5331 12.8912C60.6757 13.2095 60.8025 13.5358 60.9134 13.87C61.0401 14.2042 61.1035 14.5782 61.1035 14.992C61.1035 15.2944 61.0322 15.5889 60.8896 15.8753C60.7628 16.1459 60.5885 16.4005 60.3667 16.6393C60.1448 16.8621 59.8913 17.053 59.6061 17.2122C59.3367 17.3714 59.0594 17.4748 58.7742 17.5225L58.8217 17.5703C59.6774 17.4748 60.4935 17.2281 61.2699 16.8302C62.0464 16.4164 62.7674 15.9231 63.4329 15.3501C64.1143 14.7613 64.7402 14.1247 65.3107 13.4403C65.8812 12.7401 66.3803 12.0557 66.8082 11.3873L66.9508 11.4589Z" fill="white"/>
<path d="M70.9917 6.63661L69.114 9.40584H72.2515L72.1089 9.69231H68.9238C68.29 10.7268 67.7195 11.626 67.2124 12.3899C66.7212 13.1379 66.3013 13.7905 65.9527 14.3475C65.6199 14.8886 65.3663 15.3501 65.192 15.7321C65.0177 16.0981 64.9306 16.4244 64.9306 16.7109C64.9306 17.0133 65.0336 17.2281 65.2396 17.3554C65.4456 17.4668 65.6833 17.5225 65.9527 17.5225C66.5231 17.5225 67.149 17.3077 67.8304 16.878C68.5276 16.4324 69.217 15.8912 69.8983 15.2546C70.5797 14.618 71.2294 13.9416 71.8474 13.2255C72.4654 12.5093 72.9884 11.8647 73.4162 11.2918L73.5588 11.3873C73.02 12.0716 72.4258 12.7958 71.7761 13.5597C71.1423 14.3077 70.4847 15 69.8033 15.6366C69.1219 16.2573 68.4326 16.7745 67.7353 17.1883C67.054 17.6021 66.4043 17.809 65.7863 17.809C65.295 17.809 64.8672 17.6578 64.5027 17.3554C64.1541 17.0531 63.9798 16.6313 63.9798 16.0902C63.9798 15.7241 64.0828 15.3183 64.2888 14.8727C64.4948 14.4111 64.7642 13.9178 65.097 13.3926C65.4297 12.8674 65.8021 12.2944 66.2141 11.6737C66.642 11.0531 67.0777 10.3926 67.5214 9.69231H66.2379L66.3805 9.40584H67.7116L69.5656 6.63661H70.9917Z" fill="white"/>
<path d="M81.3627 1.09814L72.9484 13.6552L72.996 13.7029C73.3129 13.305 73.6853 12.8515 74.1131 12.3422C74.541 11.817 75.0005 11.3236 75.4917 10.8621C75.9988 10.4005 76.5297 10.0106 77.0843 9.69231C77.6389 9.37401 78.1935 9.21485 78.7481 9.21485C79.7147 9.21485 80.1981 9.70026 80.1981 10.6711C80.1981 10.9257 80.103 11.2281 79.9128 11.5782C79.7385 11.9284 79.5087 12.3024 79.2235 12.7003C78.9541 13.0822 78.661 13.4721 78.3441 13.87C78.0271 14.2679 77.726 14.6578 77.4408 15.0398C77.1714 15.4058 76.9417 15.756 76.7515 16.0902C76.5772 16.4085 76.4901 16.679 76.4901 16.9019C76.4901 17.0769 76.5376 17.2281 76.6327 17.3554C76.7436 17.4668 76.8862 17.5225 77.0605 17.5225C77.425 17.5225 77.8211 17.4111 78.249 17.1883C78.6927 16.9496 79.1443 16.6472 79.6038 16.2812C80.0792 15.8992 80.5467 15.4775 81.0062 15.0159C81.4657 14.5544 81.8857 14.1008 82.266 13.6552C82.6621 13.1936 83.0107 12.7639 83.3118 12.366C83.6288 11.9523 83.8585 11.618 84.0011 11.3634L84.1437 11.4111C83.9694 11.7135 83.7238 12.0796 83.4069 12.5093C83.09 12.939 82.7255 13.3926 82.3135 13.87C81.9174 14.3475 81.4816 14.8249 81.0062 15.3024C80.5467 15.7639 80.0792 16.1857 79.6038 16.5676C79.1443 16.9337 78.6847 17.2361 78.2252 17.4748C77.7657 17.6976 77.3378 17.809 76.9417 17.809C76.5297 17.809 76.189 17.6817 75.9196 17.4271C75.666 17.1724 75.5393 16.8223 75.5393 16.3767C75.5393 16.0584 75.6264 15.7082 75.8007 15.3263C75.9909 14.9443 76.2207 14.5623 76.4901 14.1804C76.7753 13.7825 77.0764 13.3926 77.3933 13.0106C77.7102 12.6127 78.0034 12.2387 78.2727 11.8886C78.558 11.5385 78.7877 11.2202 78.9621 10.9337C79.1522 10.6313 79.2473 10.3767 79.2473 10.1698C79.2473 9.91512 79.176 9.74005 79.0334 9.64456C78.8907 9.54907 78.7164 9.50133 78.5104 9.50133C78.1143 9.50133 77.6706 9.65252 77.1794 9.95491C76.704 10.2414 76.2048 10.6233 75.6819 11.1008C75.1748 11.5782 74.6677 12.1194 74.1607 12.7241C73.6536 13.313 73.1703 13.9098 72.7107 14.5146C72.267 15.1194 71.8709 15.6923 71.5223 16.2334C71.1895 16.7745 70.928 17.2361 70.7379 17.618H69.1929C70.0644 16.2493 70.9597 14.8568 71.8788 13.4403C72.7979 12.0239 73.709 10.6154 74.6123 9.21485C75.5314 7.81432 76.4267 6.43767 77.2982 5.08488C78.1697 3.71618 78.9937 2.41114 79.7702 1.16976L81.3627 1.09814Z" fill="white"/>
<path d="M88.2638 10.1698C88.2638 9.94695 88.2004 9.77984 88.0737 9.66844C87.9627 9.55703 87.8201 9.50133 87.6458 9.50133C87.313 9.50133 86.9486 9.63661 86.5524 9.90716C86.1721 10.1618 85.7918 10.4881 85.4115 10.8859C85.0312 11.2679 84.6826 11.6817 84.3657 12.1273C84.0646 12.5729 83.8348 12.9708 83.6764 13.321C84.025 13.2573 84.4607 13.1379 84.9837 12.9629C85.5066 12.7719 86.0057 12.5411 86.4811 12.2706C86.9724 12 87.3923 11.6897 87.7409 11.3395C88.0895 10.9735 88.2638 10.5836 88.2638 10.1698ZM92.1144 11.435C91.8767 11.8329 91.5757 12.2706 91.2112 12.748C90.8626 13.2255 90.4585 13.7029 89.999 14.1804C89.5553 14.6419 89.072 15.0955 88.549 15.5411C88.042 15.9708 87.5111 16.3607 86.9565 16.7109C86.4019 17.0451 85.8393 17.3157 85.2689 17.5225C84.7143 17.7135 84.1676 17.809 83.6288 17.809C82.9633 17.809 82.4483 17.6419 82.0838 17.3077C81.7193 16.9576 81.5371 16.4642 81.5371 15.8276C81.5371 15.1273 81.7431 14.3952 82.1551 13.6313C82.583 12.8515 83.1217 12.1353 83.7714 11.4828C84.4211 10.8302 85.1342 10.2891 85.9107 9.85942C86.6871 9.42971 87.4319 9.21485 88.145 9.21485C88.5411 9.21485 88.8501 9.30239 89.072 9.47745C89.2938 9.6366 89.4047 9.87533 89.4047 10.1936C89.4047 10.5756 89.1987 10.9496 88.7867 11.3157C88.3747 11.6658 87.8677 11.992 87.2655 12.2944C86.6792 12.5809 86.0454 12.8435 85.364 13.0822C84.6826 13.305 84.0804 13.4721 83.5575 13.5836C83.3832 13.9019 83.2406 14.2599 83.1297 14.6578C83.0187 15.0557 82.9633 15.4536 82.9633 15.8515C82.9633 16.0424 82.9791 16.2334 83.0108 16.4244C83.0583 16.5995 83.1217 16.7666 83.201 16.9257C83.296 17.069 83.4149 17.1883 83.5575 17.2838C83.716 17.3793 83.9061 17.4271 84.128 17.4271C84.6509 17.4271 85.261 17.2599 85.9582 16.9257C86.6713 16.5756 87.3923 16.1141 88.1212 15.5411C88.8501 14.9682 89.5474 14.3156 90.2129 13.5836C90.8784 12.8515 91.4489 12.0955 91.9243 11.3157L92.1144 11.435Z" fill="white"/>
<path d="M96.0841 6.63661L94.2063 9.40584H97.3439L97.2012 9.69231H94.0162C93.3823 10.7268 92.8119 11.626 92.3048 12.3899C91.8135 13.1379 91.3936 13.7905 91.045 14.3475C90.7122 14.8886 90.4587 15.3501 90.2844 15.7321C90.1101 16.0981 90.0229 16.4244 90.0229 16.7109C90.0229 17.0133 90.1259 17.2281 90.3319 17.3554C90.5379 17.4668 90.7756 17.5225 91.045 17.5225C91.6155 17.5225 92.2414 17.3077 92.9228 16.878C93.62 16.4324 94.3093 15.8912 94.9907 15.2546C95.6721 14.618 96.3218 13.9416 96.9398 13.2255C97.5578 12.5093 98.0807 11.8647 98.5086 11.2918L98.6512 11.3873C98.1124 12.0716 97.5182 12.7958 96.8685 13.5597C96.2346 14.3077 95.577 15 94.8956 15.6366C94.2142 16.2573 93.5249 16.7745 92.8277 17.1883C92.1463 17.6021 91.4966 17.809 90.8786 17.809C90.3874 17.809 89.9595 17.6578 89.5951 17.3554C89.2465 17.0531 89.0722 16.6313 89.0722 16.0902C89.0722 15.7241 89.1752 15.3183 89.3812 14.8727C89.5872 14.4111 89.8565 13.9178 90.1893 13.3926C90.5221 12.8674 90.8945 12.2944 91.3065 11.6737C91.7343 11.0531 92.1701 10.3926 92.6138 9.69231H91.3302L91.4728 9.40584H92.8039L94.6579 6.63661H96.0841Z" fill="white"/>
<path d="M101.178 9.40584C100.307 10.6631 99.5699 11.7215 98.9678 12.5809C98.3656 13.4403 97.8744 14.1565 97.4941 14.7294C97.1296 15.3024 96.8602 15.756 96.6859 16.0902C96.5275 16.4244 96.4482 16.695 96.4482 16.9019C96.4482 17.3157 96.6146 17.5225 96.9474 17.5225C97.2643 17.5225 97.6288 17.4111 98.0408 17.1883C98.4686 16.9496 98.9123 16.6472 99.3719 16.2812C99.8314 15.9151 100.291 15.5013 100.75 15.0398C101.21 14.5782 101.638 14.1247 102.034 13.679C102.446 13.2175 102.803 12.7798 103.104 12.366C103.421 11.9363 103.65 11.5862 103.793 11.3157L103.983 11.435C103.793 11.7533 103.531 12.1353 103.199 12.5809C102.882 13.0265 102.517 13.4881 102.105 13.9655C101.693 14.4271 101.258 14.8886 100.798 15.3501C100.338 15.8117 99.871 16.2255 99.3956 16.5915C98.9202 16.9576 98.4528 17.252 97.9932 17.4748C97.5496 17.6976 97.1376 17.809 96.7572 17.809C96.3294 17.809 96.0125 17.6897 95.8065 17.4509C95.6005 17.2122 95.4975 16.9496 95.4975 16.6631C95.4975 16.3289 95.5688 15.9788 95.7114 15.6127C95.8699 15.2308 96.1155 14.7692 96.4482 14.2281C96.781 13.687 97.2089 13.0345 97.7318 12.2706C98.2706 11.4907 98.9123 10.5358 99.6571 9.40584H101.178ZM102.557 4.96552C102.779 4.96552 102.961 5.04509 103.104 5.20424C103.246 5.34748 103.318 5.5305 103.318 5.75332C103.318 5.97613 103.246 6.16711 103.104 6.32626C102.961 6.4695 102.779 6.54111 102.557 6.54111C102.335 6.54111 102.153 6.4695 102.01 6.32626C101.868 6.16711 101.796 5.97613 101.796 5.75332C101.796 5.5305 101.868 5.34748 102.01 5.20424C102.153 5.04509 102.335 4.96552 102.557 4.96552Z" fill="white"/>
<path d="M111.748 11.626C111.384 12.2149 110.9 12.8515 110.298 13.5358C109.712 14.2042 109.07 14.8329 108.373 15.4218C107.517 16.1379 106.661 16.7188 105.806 17.1645C104.95 17.5942 104.11 17.809 103.286 17.809C102.7 17.809 102.209 17.6578 101.812 17.3554C101.416 17.0371 101.218 16.5756 101.218 15.9708C101.218 15.2069 101.432 14.4271 101.86 13.6313C102.304 12.8355 102.85 12.1114 103.5 11.4589C104.166 10.7905 104.887 10.2493 105.663 9.83554C106.455 9.42175 107.2 9.21485 107.897 9.21485C108.357 9.21485 108.753 9.30239 109.086 9.47745C109.434 9.6366 109.609 9.92308 109.609 10.3369C109.609 10.5279 109.553 10.687 109.442 10.8143C109.347 10.9416 109.221 11.0451 109.062 11.1247C108.919 11.2042 108.753 11.2679 108.563 11.3157C108.389 11.3475 108.23 11.3714 108.088 11.3873C108.151 11.2281 108.206 11.069 108.254 10.9098C108.301 10.7347 108.325 10.5597 108.325 10.3846C108.325 9.79576 108.048 9.50133 107.493 9.50133C107.081 9.50133 106.59 9.70822 106.02 10.122C105.465 10.5199 104.934 11.0292 104.427 11.6499C103.936 12.2706 103.516 12.9549 103.167 13.7029C102.819 14.4509 102.644 15.1751 102.644 15.8753C102.644 16.305 102.739 16.6711 102.93 16.9735C103.136 17.2759 103.445 17.4271 103.857 17.4271C104.411 17.4271 105.045 17.244 105.758 16.878C106.487 16.5119 107.192 16.0584 107.874 15.5172C108.587 14.9602 109.268 14.3236 109.918 13.6074C110.583 12.8753 111.138 12.1671 111.582 11.4828L111.748 11.626Z" fill="white"/>
<path d="M127.769 4.34483C127.753 4.44032 127.745 4.53581 127.745 4.6313C127.745 4.71088 127.745 4.80637 127.745 4.91777C127.745 5.25199 127.8 5.5305 127.911 5.75332C128.038 5.97613 128.197 6.15915 128.387 6.30239C128.577 6.42971 128.791 6.5252 129.028 6.58886C129.282 6.6366 129.536 6.66048 129.789 6.66048C130.217 6.66048 130.653 6.55703 131.096 6.35013C131.54 6.12732 131.944 5.83289 132.309 5.46684C132.673 5.08488 132.966 4.64721 133.188 4.15385C133.426 3.66048 133.545 3.14324 133.545 2.60212C133.545 1.93369 133.362 1.48806 132.998 1.26525C132.633 1.02652 132.142 0.907161 131.524 0.907161C130.811 0.907161 130.027 1.08223 129.171 1.43236C128.315 1.76658 127.444 2.23607 126.556 2.84085C125.685 3.44562 124.837 4.1618 124.013 4.98939C123.205 5.81698 122.476 6.71618 121.826 7.687C121.193 8.65783 120.685 9.67639 120.305 10.7427C119.925 11.809 119.735 12.8912 119.735 13.9894C119.735 14.435 119.79 14.8806 119.901 15.3263C120.012 15.7719 120.186 16.1777 120.424 16.5438C120.662 16.8939 120.971 17.1804 121.351 17.4032C121.731 17.6101 122.191 17.7135 122.73 17.7135C123.506 17.7135 124.243 17.5385 124.94 17.1883C125.653 16.8223 126.271 16.3528 126.794 15.7798C127.333 15.2069 127.761 14.5703 128.078 13.87C128.395 13.1538 128.553 12.4456 128.553 11.7454C128.553 11.1088 128.363 10.6233 127.983 10.2891C127.618 9.95491 127.119 9.7878 126.485 9.7878L126.461 9.50133C127.46 9.50133 128.197 9.70026 128.672 10.0981C129.163 10.496 129.409 11.1724 129.409 12.1273C129.409 12.6844 129.258 13.305 128.957 13.9894C128.672 14.6737 128.244 15.3183 127.674 15.9231C127.103 16.5119 126.39 17.0053 125.534 17.4032C124.695 17.8011 123.728 18 122.635 18C121.811 18 121.113 17.8568 120.543 17.5703C119.988 17.2838 119.537 16.9257 119.188 16.496C118.839 16.0663 118.586 15.6048 118.427 15.1114C118.285 14.6021 118.213 14.1326 118.213 13.7029C118.213 12.7003 118.427 11.6817 118.855 10.6472C119.283 9.59682 119.846 8.58621 120.543 7.61539C121.256 6.64456 122.072 5.7374 122.991 4.8939C123.91 4.03448 124.853 3.29443 125.82 2.67374C126.802 2.03714 127.777 1.53581 128.743 1.16976C129.726 0.803714 130.621 0.62069 131.429 0.62069C132.427 0.62069 133.172 0.827586 133.663 1.24138C134.155 1.65517 134.4 2.25995 134.4 3.0557C134.4 3.61273 134.266 4.12997 133.996 4.60743C133.743 5.08488 133.394 5.49867 132.95 5.84881C132.523 6.18302 132.031 6.45358 131.477 6.66048C130.922 6.85146 130.352 6.94695 129.765 6.94695C129.147 6.94695 128.616 6.80371 128.173 6.51724C127.729 6.21485 127.491 5.70557 127.46 4.98939C127.46 4.8939 127.46 4.79045 127.46 4.67904C127.46 4.55172 127.468 4.44032 127.483 4.34483H127.769Z" fill="white"/>
<path d="M141.46 1.00265C140.049 3.15119 138.821 5.01326 137.775 6.58886C136.73 8.14854 135.834 9.48541 135.089 10.5995C134.345 11.7135 133.735 12.6366 133.259 13.3687C132.784 14.0849 132.411 14.6737 132.142 15.1353C131.873 15.5968 131.683 15.9629 131.572 16.2334C131.477 16.504 131.429 16.7347 131.429 16.9257C131.429 17.3236 131.603 17.5225 131.952 17.5225C132.348 17.5225 132.808 17.3634 133.331 17.0451C133.869 16.7109 134.44 16.2653 135.042 15.7082C135.66 15.1353 136.286 14.4748 136.92 13.7268C137.554 12.9629 138.172 12.1512 138.774 11.2918L139.035 11.3873C138.465 12.1989 137.863 12.9867 137.229 13.7507C136.595 14.4987 135.985 15.1512 135.398 15.7082C134.622 16.4403 133.949 16.9735 133.378 17.3077C132.823 17.6419 132.316 17.809 131.857 17.809C131.366 17.809 131.009 17.6976 130.787 17.4748C130.581 17.252 130.478 16.9576 130.478 16.5915C130.478 16.2573 130.534 15.9151 130.645 15.565C130.771 15.1989 130.977 14.7692 131.263 14.2759C131.548 13.7666 131.92 13.1538 132.38 12.4377C132.855 11.7215 133.434 10.8462 134.115 9.81167C134.812 8.76127 135.628 7.51989 136.563 6.08753C137.498 4.63926 138.576 2.9443 139.796 1.00265H141.46Z" fill="white"/>
<path d="M141.428 9.40584C140.81 10.2493 140.216 11.0531 139.646 11.817C139.075 12.5809 138.568 13.2812 138.124 13.9178C137.681 14.5544 137.324 15.1114 137.055 15.5889C136.801 16.0504 136.674 16.4164 136.674 16.687C136.674 16.9416 136.738 17.1326 136.865 17.2599C136.991 17.3714 137.158 17.4271 137.364 17.4271C137.665 17.4271 137.99 17.3316 138.338 17.1406C138.703 16.9496 139.067 16.7029 139.432 16.4005C139.812 16.0981 140.176 15.7639 140.525 15.3979C140.889 15.0318 141.222 14.6737 141.523 14.3236C141.84 13.9576 142.11 13.6233 142.331 13.321C142.569 13.0186 142.743 12.7798 142.854 12.6048L144.946 9.40584H146.586C145.73 10.5836 145.002 11.5862 144.399 12.4138C143.813 13.2255 143.33 13.9178 142.949 14.4907C142.585 15.0637 142.324 15.5332 142.165 15.8992C142.007 16.2493 141.927 16.5597 141.927 16.8302C141.927 17.0212 141.983 17.1883 142.094 17.3316C142.205 17.4589 142.363 17.5225 142.569 17.5225C142.886 17.5225 143.251 17.4111 143.663 17.1883C144.075 16.9496 144.502 16.6472 144.946 16.2812C145.39 15.8992 145.826 15.4775 146.253 15.0159C146.697 14.5385 147.109 14.069 147.489 13.6074C147.886 13.1459 148.242 12.7162 148.559 12.3183C148.876 11.9045 149.122 11.5703 149.296 11.3157L149.534 11.3873C149.343 11.6578 149.09 12.008 148.773 12.4377C148.456 12.8515 148.099 13.2971 147.703 13.7745C147.307 14.2361 146.887 14.7135 146.444 15.2069C146 15.6844 145.54 16.1141 145.065 16.496C144.605 16.878 144.146 17.1963 143.686 17.4509C143.243 17.6897 142.823 17.809 142.427 17.809C141.983 17.809 141.626 17.6897 141.357 17.4509C141.103 17.1963 140.977 16.8621 140.977 16.4483C140.977 16.13 141.024 15.8276 141.119 15.5411C141.23 15.2387 141.309 15.0477 141.357 14.9682L141.309 14.9204C140.977 15.3024 140.628 15.6684 140.264 16.0186C139.899 16.3687 139.535 16.679 139.17 16.9496C138.806 17.2042 138.433 17.4111 138.053 17.5703C137.689 17.7294 137.324 17.809 136.96 17.809C136.453 17.809 136.088 17.6976 135.866 17.4748C135.644 17.2361 135.533 16.9576 135.533 16.6393C135.533 16.2414 135.644 15.8117 135.866 15.3501C136.072 14.8886 136.365 14.3714 136.746 13.7984C137.126 13.2255 137.578 12.5809 138.101 11.8647C138.639 11.1485 139.226 10.3289 139.859 9.40584H141.428Z" fill="white"/>
<path d="M157.171 1.09814C155.809 3.21485 154.628 5.03714 153.63 6.56499C152.647 8.07692 151.808 9.36605 151.11 10.4324C150.429 11.4828 149.874 12.3422 149.446 13.0106C149.034 13.679 148.718 14.2281 148.496 14.6578C148.274 15.0875 148.123 15.4377 148.044 15.7082C147.965 15.9629 147.925 16.2095 147.925 16.4483C147.925 16.7666 148.02 17.0292 148.21 17.2361C148.401 17.4271 148.646 17.5225 148.947 17.5225C149.518 17.5225 150.128 17.2838 150.778 16.8064C151.443 16.3289 152.053 15.748 152.608 15.0637C153.162 14.3793 153.622 13.6711 153.986 12.939C154.367 12.2069 154.557 11.5782 154.557 11.0531C154.557 10.878 154.517 10.7109 154.438 10.5517C154.359 10.3767 154.319 10.1936 154.319 10.0027C154.319 9.77984 154.367 9.59682 154.462 9.45358C154.573 9.29443 154.747 9.21485 154.985 9.21485C155.254 9.21485 155.46 9.35809 155.603 9.64456C155.761 9.93104 155.84 10.305 155.84 10.7666C155.84 11.1485 155.809 11.4987 155.745 11.817C155.888 12.008 156.126 12.191 156.458 12.366C156.791 12.5411 157.164 12.6286 157.576 12.6286C158.035 12.6286 158.455 12.5093 158.835 12.2706C159.231 12.0318 159.564 11.7374 159.834 11.3873L160 11.5544C159.746 11.8727 159.406 12.1751 158.978 12.4615C158.55 12.7321 158.075 12.8674 157.552 12.8674C157.187 12.8674 156.847 12.8037 156.53 12.6764C156.213 12.5332 155.92 12.3501 155.65 12.1273C155.444 12.7798 155.096 13.4483 154.604 14.1326C154.129 14.8011 153.566 15.4138 152.917 15.9708C152.283 16.5119 151.602 16.9576 150.873 17.3077C150.16 17.6419 149.462 17.809 148.781 17.809C148.226 17.809 147.751 17.6499 147.355 17.3316C146.974 16.9973 146.784 16.5279 146.784 15.9231C146.784 15.6684 146.832 15.3899 146.927 15.0875C147.022 14.7692 147.188 14.3793 147.426 13.9178C147.664 13.4562 147.989 12.8833 148.401 12.1989C148.828 11.5146 149.367 10.6711 150.017 9.66844C150.667 8.64987 151.451 7.44828 152.37 6.06366C153.289 4.66313 154.367 3.02387 155.603 1.14589L157.171 1.09814Z" fill="white"/>
<path d="M66.6716 24.8821H67.3589C67.5811 24.8821 67.772 24.9156 67.9316 24.9825C68.0913 25.0495 68.2145 25.147 68.3013 25.2751C68.3881 25.4003 68.4315 25.5502 68.4315 25.7249C68.4315 25.8588 68.4002 25.9796 68.3378 26.0873C68.2753 26.1921 68.192 26.2809 68.0878 26.3537C67.9837 26.4265 67.8657 26.4818 67.7338 26.5197C67.6019 26.5546 67.4648 26.5677 67.3225 26.559C67.1836 26.5502 67.0483 26.5167 66.9164 26.4585V26.4148C66.9164 26.4148 66.9459 26.4192 67.0049 26.4279C67.0639 26.4338 67.1385 26.4352 67.2288 26.4323C67.3225 26.4265 67.4197 26.4105 67.5203 26.3843C67.6245 26.3552 67.7199 26.3057 67.8067 26.2358C67.8969 26.1659 67.9646 26.0684 68.0097 25.9432C68.0202 25.9112 68.0288 25.8719 68.0358 25.8253C68.0427 25.7758 68.0445 25.7278 68.041 25.6812C68.0375 25.4803 67.975 25.3188 67.8535 25.1965C67.7321 25.0742 67.5602 25.0131 67.3381 25.0131H66.7237C66.7237 25.0131 66.7185 25.0029 66.7081 24.9825C66.7012 24.9592 66.6925 24.9374 66.6821 24.917C66.6751 24.8937 66.6716 24.8821 66.6716 24.8821ZM66.7393 24.8821V27.9389H66.4009V24.8821H66.7393ZM66.4165 27.6201V27.9389H66V27.8952C66 27.8952 66.0104 27.8952 66.0312 27.8952C66.0555 27.8952 66.0677 27.8952 66.0677 27.8952C66.1579 27.8952 66.2343 27.869 66.2968 27.8166C66.3627 27.7613 66.3974 27.6958 66.4009 27.6201H66.4165ZM66.4165 25.2009H66.4009C66.4009 25.1252 66.3679 25.0611 66.302 25.0087C66.236 24.9534 66.1579 24.9258 66.0677 24.9258C66.0677 24.9258 66.0573 24.9258 66.0364 24.9258C66.0156 24.9258 66.0052 24.9258 66.0052 24.9258L66 24.8821H66.4165V25.2009ZM66.7237 27.6201H66.7393C66.7428 27.6958 66.7758 27.7613 66.8383 27.8166C66.9042 27.869 66.9823 27.8952 67.0726 27.8952C67.0726 27.8952 67.083 27.8952 67.1038 27.8952C67.1281 27.8952 67.1402 27.8952 67.1402 27.8952V27.9389H66.7237V27.6201Z" fill="white"/>
<path d="M73.2958 24.8821H74.0299C74.1861 24.8821 74.3267 24.901 74.4517 24.9389C74.5801 24.9767 74.6877 25.032 74.7745 25.1048C74.8612 25.1747 74.9272 25.2606 74.9723 25.3624C75.0209 25.4614 75.0452 25.575 75.0452 25.7031C75.0452 25.8428 75.0053 25.9767 74.9255 26.1048C74.8491 26.2329 74.7432 26.3377 74.6079 26.4192C74.476 26.4978 74.3267 26.5371 74.1601 26.5371C74.2191 26.5575 74.2833 26.5997 74.3527 26.6638C74.4222 26.7249 74.4829 26.7846 74.535 26.8428C74.535 26.8428 74.5575 26.8719 74.6027 26.9301C74.6512 26.9854 74.7103 27.0539 74.7797 27.1354C74.8526 27.2169 74.9255 27.2969 74.9984 27.3755C75.0712 27.4541 75.1337 27.5167 75.1858 27.5633C75.2552 27.6274 75.3246 27.6841 75.3941 27.7336C75.4635 27.7831 75.5381 27.8224 75.6179 27.8515C75.7012 27.8806 75.7932 27.8952 75.8939 27.8952V27.9389H75.6075C75.4479 27.9389 75.309 27.9185 75.191 27.8777C75.0765 27.837 74.9793 27.7875 74.8994 27.7293C74.8196 27.6681 74.7519 27.6099 74.6964 27.5546C74.686 27.5429 74.6565 27.5095 74.6079 27.4541C74.5627 27.3988 74.5072 27.3333 74.4412 27.2576C74.3788 27.179 74.3163 27.1019 74.2538 27.0262C74.1913 26.9505 74.1375 26.8865 74.0924 26.8341C74.0473 26.7787 74.0213 26.7467 74.0143 26.738C73.9484 26.6652 73.8755 26.5983 73.7956 26.5371C73.7158 26.476 73.629 26.4454 73.5353 26.4454V26.4017C73.5353 26.4017 73.5613 26.4032 73.6134 26.4061C73.6689 26.4061 73.7349 26.4047 73.8113 26.4017C73.9015 26.3988 74.0004 26.3872 74.108 26.3668C74.2156 26.3464 74.3163 26.3042 74.41 26.2402C74.5037 26.1761 74.5749 26.0786 74.6235 25.9476C74.6339 25.9156 74.6426 25.8763 74.6495 25.8297C74.6565 25.7802 74.6582 25.7322 74.6547 25.6856C74.6512 25.4876 74.5905 25.3304 74.4725 25.214C74.3579 25.0946 74.2035 25.0306 74.0091 25.0218C73.9119 25.016 73.8113 25.0146 73.7071 25.0175C73.6065 25.0175 73.5214 25.0175 73.452 25.0175C73.3826 25.0175 73.3479 25.0175 73.3479 25.0175C73.3479 25.0146 73.3427 25.0029 73.3322 24.9825C73.3253 24.9592 73.3166 24.9374 73.3062 24.917C73.2993 24.8937 73.2958 24.8821 73.2958 24.8821ZM73.3635 24.8821V27.9389H73.0251V24.8821H73.3635ZM73.0407 27.6201V27.9389H72.6242V27.8952C72.6242 27.8952 72.6346 27.8952 72.6554 27.8952C72.6797 27.8952 72.6918 27.8952 72.6918 27.8952C72.7821 27.8952 72.8584 27.869 72.9209 27.8166C72.9869 27.7613 73.0216 27.6958 73.0251 27.6201H73.0407ZM73.0407 25.2009H73.0251C73.0216 25.1252 72.9869 25.0611 72.9209 25.0087C72.8584 24.9534 72.7821 24.9258 72.6918 24.9258C72.6918 24.9258 72.6797 24.9258 72.6554 24.9258C72.6346 24.9258 72.6242 24.9258 72.6242 24.9258V24.8821H73.0407V25.2009ZM73.3479 27.6201H73.3635C73.3635 27.6958 73.3965 27.7613 73.4624 27.8166C73.5284 27.869 73.6065 27.8952 73.6967 27.8952C73.6967 27.8952 73.7071 27.8952 73.7279 27.8952C73.7488 27.8952 73.7592 27.8952 73.7592 27.8952V27.9389H73.3479V27.6201Z" fill="white"/>
<path d="M80.3741 24.8821V27.9389H80.0356V24.8821H80.3741ZM80.0513 27.6201V27.9389H79.6347V27.8952C79.6347 27.8952 79.6451 27.8952 79.666 27.8952C79.6903 27.8952 79.7024 27.8952 79.7024 27.8952C79.7927 27.8952 79.869 27.869 79.9315 27.8166C79.9975 27.7613 80.0322 27.6958 80.0356 27.6201H80.0513ZM80.0513 25.2009H80.0356C80.0322 25.1252 79.9975 25.0611 79.9315 25.0087C79.869 24.9534 79.7927 24.9258 79.7024 24.9258C79.7024 24.9258 79.6903 24.9258 79.666 24.9258C79.6451 24.9258 79.6347 24.9258 79.6347 24.9258V24.8821H80.0513V25.2009ZM80.3584 27.6201H80.3741C80.3775 27.6958 80.4105 27.7613 80.473 27.8166C80.5389 27.869 80.617 27.8952 80.7073 27.8952C80.7073 27.8952 80.7177 27.8952 80.7385 27.8952C80.7594 27.8952 80.7715 27.8952 80.775 27.8952V27.9389H80.3584V27.6201ZM80.3584 25.2009V24.8821H80.775V24.9258C80.7715 24.9258 80.7594 24.9258 80.7385 24.9258C80.7177 24.9258 80.7073 24.9258 80.7073 24.9258C80.617 24.9258 80.5389 24.9534 80.473 25.0087C80.4105 25.0611 80.3775 25.1252 80.3741 25.2009H80.3584Z" fill="white"/>
<path d="M86.637 28L85.023 24.9083H85.4655L86.7411 27.5852L86.637 28ZM86.637 28L86.5902 27.6943L87.9751 24.8952H88.2875L86.8765 27.5502C86.8765 27.5502 86.8661 27.5691 86.8453 27.607C86.8279 27.6419 86.8054 27.6856 86.7776 27.738C86.7533 27.7904 86.7307 27.8413 86.7099 27.8908C86.6925 27.9403 86.6839 27.9767 86.6839 28H86.637ZM87.8293 25.1965C87.8675 25.1092 87.8606 25.0422 87.8085 24.9956C87.7564 24.9491 87.6974 24.9258 87.6315 24.9258H87.5846V24.8821H88.6311V24.9258C88.6311 24.9258 88.6225 24.9258 88.6051 24.9258C88.5912 24.9258 88.5843 24.9258 88.5843 24.9258C88.5079 24.9258 88.4263 24.9476 88.3396 24.9913C88.2528 25.032 88.1816 25.1019 88.1261 25.2009L87.8293 25.1965ZM85.6061 25.1965L85.174 25.2009C85.1219 25.1019 85.0525 25.032 84.9657 24.9913C84.8789 24.9476 84.7956 24.9258 84.7158 24.9258C84.7158 24.9258 84.7088 24.9258 84.695 24.9258C84.6811 24.9258 84.6741 24.9258 84.6741 24.9258V24.8821H85.8456V24.9258H85.7987C85.7328 24.9258 85.6738 24.9491 85.6217 24.9956C85.5731 25.0422 85.5679 25.1092 85.6061 25.1965Z" fill="white"/>
<path d="M93.2766 24.8821V27.9389H92.9382V24.8821H93.2766ZM94.6824 27.8035V27.9389H93.261V27.8035H94.6824ZM94.4585 26.3668V26.4978H93.261V26.3668H94.4585ZM94.6824 24.8821V25.0175H93.261V24.8821H94.6824ZM95 27.2314L94.698 27.9389H93.8337L94.0212 27.8035C94.2051 27.8035 94.3544 27.7802 94.4689 27.7336C94.5869 27.6841 94.6824 27.6157 94.7553 27.5284C94.8282 27.441 94.8924 27.3421 94.9479 27.2314H95ZM94.4585 26.4891V26.7773H94.4065V26.7118C94.4065 26.6536 94.3822 26.6041 94.3336 26.5633C94.285 26.5197 94.226 26.4978 94.1565 26.4978V26.4891H94.4585ZM94.4585 26.0873V26.3755H94.1565V26.3668C94.226 26.3639 94.285 26.3421 94.3336 26.3013C94.3822 26.2576 94.4065 26.2067 94.4065 26.1485V26.0873H94.4585ZM94.6824 25.0044V25.3537H94.6303V25.2751C94.6303 25.2052 94.6008 25.1456 94.5418 25.0961C94.4828 25.0437 94.4099 25.016 94.3231 25.0131V25.0044H94.6824ZM94.6824 24.8035V24.9301L94.0472 24.8821C94.1236 24.8821 94.2034 24.8777 94.2867 24.869C94.3735 24.8603 94.4533 24.8501 94.5262 24.8384C94.5991 24.8268 94.6512 24.8151 94.6824 24.8035ZM92.9538 27.6201V27.9389H92.5373V27.8952C92.5373 27.8952 92.5477 27.8952 92.5685 27.8952C92.5928 27.8952 92.605 27.8952 92.605 27.8952C92.6952 27.8952 92.7716 27.869 92.8341 27.8166C92.9 27.7613 92.9347 27.6958 92.9382 27.6201H92.9538ZM92.9538 25.2009H92.9382C92.9382 25.1252 92.9052 25.0611 92.8393 25.0087C92.7733 24.9534 92.6952 24.9258 92.605 24.9258C92.605 24.9258 92.5946 24.9258 92.5737 24.9258C92.5529 24.9258 92.5425 24.9258 92.5425 24.9258L92.5373 24.8821H92.9538V25.2009ZM93.7452 24.5721C93.8181 24.5051 93.891 24.4396 93.9639 24.3755C94.0368 24.3086 94.1097 24.2445 94.1826 24.1834C94.2589 24.1194 94.3336 24.0582 94.4065 24C94.4446 24.0349 94.4828 24.0713 94.521 24.1092C94.5592 24.147 94.5922 24.1878 94.6199 24.2314C94.5262 24.2751 94.4325 24.3188 94.3388 24.3624C94.245 24.4061 94.1513 24.4483 94.0576 24.4891C93.9674 24.5269 93.8754 24.5648 93.7817 24.6026L93.7452 24.5721Z" fill="white"/>
</svg>
